<svg enable-background="new 0 0 841.89 595.28" version="1.1" viewBox="0 0 461.77 369.32" xml:space="preserve" xmlns="http://www.w3.org/2000/svg">
<style type="text/css">
	.st0{fill:#82B5A4;}
	.st1{fill:#FFFFFF;}
	.st2{fill:#435E54;}
	.st3{fill:none;stroke:#E5B404;stroke-width:1.9804;stroke-miterlimit:10;}
	.st4{fill:none;stroke:#435E54;stroke-width:3.593;stroke-linecap:round;stroke-linejoin:round;stroke-miterlimit:10;}
	.st5{fill:none;stroke:#82B5A4;stroke-width:1.9804;stroke-linecap:round;stroke-linejoin:round;stroke-miterlimit:10;}
	.st6{fill:none;stroke:#82B5A4;stroke-width:1.2975;stroke-linecap:round;stroke-miterlimit:10;}
	.st7{opacity:0.8;}
	.st8{fill:#7FC49A;}
</style>

	
		<path class="st0" d="m173.8 326.7s-9.28-9.56-24.59-9.91c-12.03-0.28-21.28 11.92-24.51 15.06-2.9 2.83-6.28 7.16-11.16 8.89-3.54 1.26 0.99 1.51 0.99 1.51s7.39 0.21 11.47 0.54c4.08 0.32 15.7 3.12 24.44 0.76 9.36-2.53 16.61-8.73 22-14.03 2.66-2.58 1.36-2.82 1.36-2.82z"/>
		<path class="st0" d="m173.42 327.17s-1.23 1.63-3.96 3.52c-2.74 1.88-5.1 4.54-5.1 4.54s-3.83 2.55-5.97 3.28c-2.48 0.84-2.46 0.21-0.98-1.63 1.48-1.85 0.26-2.4 0.12-2.26-2.69 2.87-7.26 5.59-8.69 5.98-2.62 0.72 3.77-4.95 3.17-4.94-0.35 0.01-4.62 3.85-6.1 4.75-1.27 0.77-5.66 3.55-5.05 1.25 0.19-0.72 2.84-3.81 3.44-4.42 0.68-0.69 3.37-2.78 3.21-3.06s-1.65 0.55-2.07 0.82c-0.31 0.2-4.87 4.26-5.52 4.82-0.98 0.83-4.51 2.24-4.21 0.86 0.24-1.1 2.17-2.34 2.92-3.73 0.62-1.15 1.45-2.67 0.82-2.51-1.3 0.35-3.09 3.87-3.64 4.33-1.68 1.4-3.4 1.95-4.67 2.19-1.59 0.3-4.83 0.59-6.45 0.63-2.7 0.08-10.65-0.02-10.79-0.46-0.15-0.47 4.95-1.55 6.86-2.35 0.67-0.28 2.14-0.73 2.3-1.25 0.27-0.91-1.01-0.44-1.69-1.13-0.8-0.81 5.63-0.93 6.98-1.59 0.9-0.43-1.46-0.51-3-0.88-1.96-0.47 4.9-2.45 6.59-3.16 0.35-0.14 1.32-0.33 1.33-0.7 0.01-0.64-1.89-1.13-1.84-1.76 0.1-1.14 2.89-1.93 4-2.22s4.61-0.02 4.61-0.02 2.51 0.09 3.58-0.01c0.67-0.06-1.55-1.03-2.19-1.6-0.53-0.48-3.19-0.84-3.16-1.56 0.02-0.73 3.83-0.68 4.56-0.72 1.09-0.06 3.32 0.17 4.78 0.5 1.18 0.26 5.87 1.72 6.56 1.69 3.06-0.14-8.98-2-9.07-4.53-0.02-0.59 1.53-0.92 2.1-1.06 2.66-0.64 8.31-0.85 10.93-0.08 1.29 0.38 3.54 1.69 4.81 2.15 0.66 0.24 1.81 0.89 2.47 1.12 2.23 0.81 7.54 4.72 8.01 5.2z"/>
		
	
	
		<path class="st1" d="m165.33 332.05c-0.93 1.02-5.09 3.32-5.12 3.15 0.01-0.05-0.12 0.05-0.12 0.07 0.09 0.03 0.09 0.06-0.02 0.09 1.02 0.3 6.44-2.6 9.72-7.5-0.07-0.04-0.08-0.08-0.02-0.12-0.1 0.01-0.14-0.01-0.12-0.06 0.05 0.04-3.99 3.96-4.32 4.37-0.11 0.11 0.03-0.05 0 0z"/>
		<path class="st1" d="m155.86 334.93c-1.08 0.97-6.43 3.94-6.38 4.08 0-0.06-0.12 0.07-0.14 0.11 0.12 0 0.12 0.04 0 0.1 1.19-0.05 2.87-1.97 4.37-1.94-0.08-1.34 4.87-2.18 6.39-8.26-0.09-0.02-0.11-0.06-0.07-0.12-0.09 0.06-0.13 0.06-0.13-0.01 0.93 0.35-3.61 5.61-4.04 6.04-0.14 0.12 0.05-0.05 0 0z"/>
		<path class="st1" d="m148.96 335.28c-0.88 1.01-5.2 4.55-5.24 4.48-0.01-0.06-0.1 0.1-0.1 0.14 0.11-0.02 0.12 0.01 0.02 0.1 0.28-0.07 3.29-1.73 3.45-2.31 0.34-0.24 7.45-7.37 6.42-7.54 0.01-0.02 0.03-0.03 0.04-0.04-0.1 0.01-0.14-0.02-0.11-0.07-0.05 0.02-0.04 0.04 0.01 0.06-1.06 0.79-3.7 4.11-4.49 5.18-0.11 0.13 0.04-0.06 0 0z"/>
		<path class="st1" d="m142.56 335.3c-0.76 0.96-3.58 3.13-3.66 2.94 0-0.04-0.09 0.08-0.09 0.08 0.09 0.02 0.09 0.05 0.01 0.09 0.54 0.44 6.61-4.78 7.65-7.43-0.1 0.02-0.14 0-0.12-0.05-0.04 0.02-0.03 0.03 0.03 0.05-0.77 0.63-2.83 3.81-3.82 4.32z"/>
		<path class="st1" d="m158.91 323.05c-2.19-0.75-4.68-1.86-6.82-1.87 0.1 0.07 0.07 0.1-0.07 0.08 3.58 2.38 8.59 1.39 13.47 7.03-0.02-0.03 0.31 0.3 0.32 0.3 0.05-0.09 0.1-0.11 0.12-0.05 0.78-0.03-3.22-3.86-4.45-4.2-0.19-0.08-2.49-1.26-2.57-1.29z"/>
		<path class="st1" d="m151.52 324.81c-2.11-0.59-7.29-1.87-8.29-0.33 0.12 0.02 0.11 0.06-0.03 0.1 7.44-1.86 13.71 4.33 15.1 4.79 0-0.11 0.03-0.14 0.08-0.1-1.56-1.41-3.02-2.51-6.86-4.46-0.19-0.1 0.07 0.02 0 0z"/>
		<path class="st1" d="m141.83 327.95c-2.34-0.27-7.66-0.96-8.74 0.56 1.57-0.48 2.34-0.31 4.04-0.44 0.72-0.06 5.63 0.31 12.87 2.35 0.03-0.09 0.07-0.11 0.14-0.06-0.06-0.09-0.06-0.14 0.01-0.13 0.05-0.12-7.39-2.23-8.32-2.28-0.22-0.02 0.09 0.01 0 0z"/>
		<path class="st1" d="m134.04 331.67c-1.27 0.07-6.31 2-5.87 2.38 0.98-0.34 2.6-1.61 6.79-1.89-0.09-0.22 4.31 0.91 5.15 0.89 0-0.09 0.04-0.11 0.1-0.08-0.06-0.08-0.06-0.12 0-0.13 0.09-0.37-5.56-1.25-6.17-1.17-0.16 0.01 0.07 0 0 0z"/>
		<path class="st1" d="m134.12 337.08c1.01-0.82 1.99-1.69 1.97-2.47-0.11 0.12 0.66-0.34 0.39-0.46-0.02 0.02-0.03 0.02-0.03 0-0.03 0.1 0.17-0.07 0.09-0.07 0.02 0.07 0.05 0.08 0.09 0.02 0.88 2.43-5.57 4.75-5.55 5 0.06-0.07 0.06-0.11 0.01-0.13 0.03-0.03 0.04-0.02 0.02 0.04 0.63-0.38 2.55-1.66 3.01-1.93 0.03-0.03-0.03 0.02 0 0z"/>
		<path class="st1" d="m126.7 336.69c-1.37-0.44-3.07-0.52-3.93-0.41-0.17-0.16-0.09-0.18-0.45-0.32 0.1 0.03 6.89 0.41 6.94 0.97-0.05 0.07-0.32 0.04-0.27 0.06-0.67 0.01-2.25-0.28-2.29-0.3z"/>
		<path class="st0" d="m114.27 340.96c15.36-1.52 24.06-9.28 39.92-10.54 10.64-1.59 24.87-2.9 35.87-8.83 0.01-0.11 0.03-0.37-0.02-0.46-0.15-0.26-0.22-0.4-0.58-0.63-8.99 5.19-18.93 6.99-28.48 8.08-3.19 0.36-7.81 1.86-10.96 1.54-2.2 0.13-7.81 1.94-10.92 2.94-0.33 0.12-4.37 1.58-4.34 1.58 0.15-0.06-3.55 1.05-3.95 1.46-6.25 2.98-13.82 4.32-13.51 4.22-0.58 0.4-2.27 0.51-3.03 0.64zm3.47-0.71c0.82-0.35-0.38 0.13 0 0-0.02 0.01-0.08 0.03 0 0z"/>
	


	
		<path class="st0" d="m172.36 316.43s-0.87-19.04-16.94-33.94c-12.63-11.71-34.09-7.41-40.54-7.1-5.79 0.28-13.52 1.71-20.39-1.05-4.98-2.01-0.37 2.56-0.37 2.56s7.71 7.23 11.78 11.45 13.85 18.24 25.45 24c12.42 6.17 26.08 6.4 36.87 5.84 5.31-0.27 4.14-1.76 4.14-1.76z"/>
		<path class="st0" d="m171.51 316.59s-2.87 0.59-7.58 0.01c-4.72-0.58-9.77 0.02-9.77 0.02s-6.53-0.9-9.51-2.15c-3.45-1.44-2.84-2.11 0.5-2.68s2.56-2.33 2.27-2.3c-5.61 0.53-13.08-0.9-14.98-1.83-3.48-1.71 8.73-1.73 8.07-2.29-0.38-0.32-8.6-0.26-11.03-0.69-2.09-0.38-9.43-1.56-6.6-3.45 0.89-0.59 6.66-1.38 7.88-1.47 1.39-0.1 6.24 0.22 6.33-0.23s-2.29-0.97-2.99-1.09c-0.52-0.09-9.25-0.05-10.48-0.08-1.84-0.04-6.95-1.88-5.32-3.07 1.3-0.96 4.54-0.44 6.67-1.23 1.75-0.64 4.09-1.49 3.26-1.91-1.73-0.87-6.98 1.21-8.01 1.18-3.13-0.09-5.49-1.14-7.08-2.09-1.99-1.18-5.74-3.95-7.52-5.44-2.96-2.48-11.39-10.12-11.13-10.72 0.28-0.65 6.77 3.04 9.57 3.99 0.99 0.33 2.99 1.25 3.65 0.84 1.16-0.72-0.66-1.43-0.74-2.81-0.09-1.63 6.91 4.34 8.99 4.92 1.37 0.39-1.08-1.94-2.38-3.79-1.66-2.36 7.58 2.02 10.05 2.86 0.51 0.17 1.73 0.9 2.09 0.51 0.61-0.67-0.96-3-0.3-3.63 1.19-1.12 4.93 0.67 6.39 1.41 1.47 0.74 4.96 4.34 4.96 4.34s2.6 2.47 3.84 3.38c0.78 0.57-0.69-2.58-0.83-3.79-0.12-1.02-2.61-3.92-1.91-4.67 0.72-0.77 4.74 2.91 5.57 3.56 1.23 0.96 3.39 3.33 4.65 5.07 1.01 1.4 4.66 7.42 5.42 8.03 3.41 2.75-7.72-10.65-5.42-13.45 0.53-0.65 2.51 0.46 3.25 0.86 3.45 1.83 9.71 6.97 11.79 10.28 1.02 1.63 2.19 5.18 3.11 6.87 0.48 0.88 1.1 2.67 1.59 3.54 1.65 3 3.63 12.22 3.68 13.19z"/>
		
	
	
		<path class="st1" d="m158.21 314.13c-1.96 0.21-8.61-1.27-8.48-1.48 0.05-0.04-0.17-0.06-0.2-0.05 0.07 0.12 0.03 0.15-0.11 0.09 0.81 1.3 9.36 3.31 17.52 1.19-0.04-0.12 0-0.17 0.09-0.15-0.12-0.08-0.14-0.14-0.06-0.18 0.03 0.09-8.02 0.46-8.76 0.58-0.21 0.03 0.09-0.01 0 0z"/>
		<path class="st1" d="m145.34 308.24c-2.08 0.01-10.62-1.87-10.7-1.68 0.06-0.07-0.2-0.04-0.25-0.01 0.12 0.11 0.09 0.15-0.1 0.11 1.32 1.07 4.94 0.61 6.51 2.06 1.19-1.51 7.28 2.28 14.67-2.79-0.08-0.1-0.06-0.17 0.04-0.2-0.16-0.02-0.2-0.06-0.14-0.13 0.68 1.26-9.17 2.59-10.03 2.64-0.27 0 0.11-0.01 0 0z"/>
		<path class="st1" d="m137.62 302.07c-1.9 0.25-9.88-0.05-9.86-0.17 0.04-0.08-0.2 0.01-0.24 0.05 0.14 0.08 0.12 0.12-0.07 0.12 0.37 0.19 5.16 1.27 5.89 0.8 0.59 0.06 14.97-0.83 14.03-1.99 0.03 0 0.06-0.01 0.08-0.01-0.12-0.09-0.13-0.15-0.05-0.18-0.07-0.03-0.08 0-0.04 0.08-1.9-0.14-7.88 0.91-9.74 1.3-0.25 0.03 0.09-0.02 0 0z"/>
		<path class="st1" d="m130.74 296.02c-1.72 0.31-6.81-0.05-6.71-0.32 0.03-0.05-0.17-0.01-0.17-0.01 0.08 0.1 0.05 0.14-0.08 0.1 0.17 0.99 11.62 1.14 15.24-0.7-0.12-0.07-0.15-0.12-0.08-0.17-0.06-0.02-0.07 0-0.02 0.08-1.41-0.03-6.63 1.41-8.18 1.02z"/>
		<path class="st1" d="m159.87 298.41c-1.63-2.88-3.25-6.43-5.52-8.47 0.03 0.17-0.02 0.18-0.15 0.02 1.58 5.95 7.88 9.63 7.76 20.3 0-0.05 0.05 0.62 0.06 0.63 0.15-0.05 0.21-0.03 0.18 0.07 0.86 0.7 0.21-7.2-0.78-8.72-0.14-0.27-1.49-3.73-1.55-3.83z"/>
		<path class="st1" d="m150.29 293.28c-1.7-2.64-6.04-8.91-8.57-8.22 0.11 0.14 0.07 0.17-0.13 0.08 9.74 5.06 10.58 17.64 11.63 19.45 0.11-0.12 0.17-0.13 0.19-0.03-0.33-2.99-0.86-5.55-3.12-11.28-0.12-0.28 0.06 0.09 0 0z"/>
		<path class="st1" d="m136.93 287.46c-2.25-2.52-7.29-8.3-9.89-7.69 2.13 0.97 2.8 1.88 4.75 3.35 0.82 0.62 5.74 5.67 11.56 14.71 0.11-0.07 0.18-0.04 0.21 0.07 0.02-0.16 0.07-0.2 0.14-0.13 0.15-0.06-5.82-9.38-6.77-10.31-0.21-0.23 0.09 0.09 0 0z"/>
		<path class="st1" d="m125.06 284.06c-1.43-1.13-8.66-3.84-8.55-3.02 1.37 0.56 4.32 0.74 9.07 4.41 0.11-0.32 3.76 5.06 4.67 5.83 0.09-0.09 0.14-0.08 0.18 0.01 0.01-0.15 0.05-0.19 0.12-0.14 0.45-0.3-4.76-6.6-5.49-7.09-0.18-0.14 0.07 0.05 0 0z"/>
		<path class="st1" d="m120.01 289.93c1.85 0.08 3.73 0.08 4.46-0.78-0.23 0.02 1.03 0.26 0.85-0.13-0.03 0-0.05-0.01-0.04-0.03-0.13 0.08 0.25 0.08 0.16 0.01-0.05 0.1-0.02 0.13 0.08 0.1-1.36 3.43-10.48-0.19-10.7 0.09 0.13-0.02 0.17-0.06 0.13-0.13 0.06-0.01 0.06 0.02-0.02 0.07 1.06 0.2 4.34 0.66 5.08 0.8 0.06 0-0.05-0.01 0 0z"/>
		<path class="st1" d="m112.44 282.47c-1.06-1.77-2.79-3.47-3.81-4.17-0.04-0.33 0.08-0.27-0.18-0.77 0.08 0.13 6.99 6.98 6.51 7.62-0.12 0.03-0.37-0.26-0.34-0.19-0.74-0.61-2.16-2.44-2.18-2.49z"/>
		<path class="st0" d="m95.072 275.26c17.9 12.94 34.57 12.87 52.76 26.58 12.9 8.39 29.38 20.48 46.79 24.56 0.12-0.1 0.38-0.36 0.41-0.52 0.09-0.42 0.14-0.64-0.02-1.22-14.55-2.97-26.91-10.46-38.17-18.35-3.75-2.64-10.13-5.41-13.2-8.75-2.48-1.94-10.21-5.33-14.49-7.2-0.46-0.18-6.18-2.44-6.14-2.42 0.22 0.08-4.8-2.24-5.63-2.18-9.52-2.74-18.9-8.47-18.47-8.29-0.99-0.14-2.9-1.63-3.84-2.21zm4.4 2.53c1.2 0.4-0.54-0.22 0 0-0.03-0.01-0.13-0.05 0 0z"/>
	


	
		<path class="st2" d="m49.752 139.14c-1.19 0-2.42-0.04-3.69-0.13-1.28-0.09-2.59-0.19-3.96-0.31v12.37c0 2.79 0.01 5.79 0.04 9.02s0.04 6.51 0.04 9.83 0.01 6.58 0.04 9.78 0.04 6.17 0.04 8.89v7.16c0 2.04-0.03 3.57-0.09 4.58-0.06 0.71-0.08 1.63-0.04 2.75 0.03 1.13 0.07 2.37 0.13 3.73 2.67-1.42 5.38-3.05 8.14-4.89 2.75-1.84 5.05-4.12 6.89-6.85 0.65-1.01 1.16-2.15 1.51-3.42 0.36-1.27 0.59-2.44 0.71-3.51 0.06-0.47 0.28-0.88 0.67-1.2 0.39-0.33 0.81-0.46 1.29-0.4 0.47 0.06 0.87 0.28 1.2 0.66 0.33 0.39 0.46 0.81 0.4 1.29-0.12 1.36-0.42 2.83-0.89 4.4-0.48 1.58-1.13 2.96-1.96 4.14-2.02 3.03-4.61 5.59-7.78 7.69-3.17 2.11-6.48 4.11-9.91 6l0.27 4.71c0.18 2.97 0.35 6.01 0.53 9.16s0.3 6.08 0.36 8.81c0.06 2.55-0.24 4.96-0.89 7.25-0.65 2.28-1.63 4.31-2.94 6.09-1.36 1.9-3.1 3.42-5.2 4.58-2.1 1.15-4.43 1.73-6.98 1.73-2.25 0-4.42-0.48-6.49-1.43-1.6-0.71-3.05-1.68-4.36-2.89-1.3-1.21-2.41-2.59-3.33-4.13s-1.59-3.21-2-5.02c-0.42-1.81-0.53-3.66-0.35-5.56 0.29-2.73 1.24-5.31 2.84-7.74 1.42-2.02 3.08-3.82 4.98-5.43 1.89-1.6 3.93-3.08 6.09-4.44 2.17-1.36 4.42-2.67 6.76-3.91 2.34-1.25 4.7-2.52 7.07-3.82-0.3-3.74-0.39-6.55-0.27-8.45 0-0.59 0.01-1.82 0.04-3.69s0.04-4.12 0.04-6.76-0.01-5.59-0.04-8.85-0.04-6.61-0.04-10.05c0-3.26-0.02-6.52-0.05-9.78s-0.04-6.34-0.04-9.25 0.01-5.53 0.04-7.87 0.05-4.25 0.05-5.73l-9.87-1.68c-2.49-0.48-4.76-0.88-6.8-1.2-2.04-0.33-3.75-0.49-5.11-0.49-0.53 0-1.53 0.13-2.98 0.4s-2.95 0.82-4.49 1.65c-3.32 1.78-4.98 4.39-4.98 7.82 0 0.48 0.03 0.99 0.09 1.56 0.06 0.56 0.19 1.14 0.4 1.73s0.47 1.13 0.8 1.6 0.76 0.8 1.29 0.98c0.47 0.12 0.83 0.4 1.07 0.84 0.23 0.45 0.26 0.91 0.09 1.38-0.18 0.53-0.47 0.86-0.89 0.98-0.41 0.12-0.86 0.17-1.33 0.17-0.95 0-1.75-0.31-2.4-0.93-0.65-0.63-1.17-1.39-1.55-2.31-0.39-0.92-0.67-1.93-0.85-3.03-0.18-1.1-0.27-2.09-0.27-2.98 0-4.8 2.28-8.44 6.85-10.94 1.84-1.01 3.62-1.67 5.34-2s2.99-0.49 3.82-0.49c1.48 0 3.29 0.18 5.43 0.53 2.13 0.35 4.53 0.77 7.2 1.24 3.38 0.65 6.87 1.24 10.49 1.78 3.61 0.53 7.03 0.77 10.23 0.71 3.14 0 5.72-0.41 7.73-1.24 1.84-0.77 3.02-2.01 3.56-3.73 0.12-0.47 0.39-0.83 0.8-1.07 0.41-0.23 0.86-0.3 1.33-0.18 0.48 0.12 0.83 0.4 1.07 0.85 0.24 0.44 0.29 0.91 0.18 1.38-0.77 2.67-2.64 4.69-5.6 6.05-1.42 0.65-2.94 1.07-4.53 1.24-1.62 0.18-3.28 0.27-4.99 0.27zm-12.72 105.54c1.07-1.48 1.87-3.19 2.4-5.12 0.53-1.92 0.77-3.99 0.71-6.18-0.12-6.93-0.47-13.87-1.06-20.81-1.84 0.89-3.8 1.87-5.87 2.94-2.08 1.07-4.12 2.24-6.14 3.51s-3.91 2.67-5.69 4.18-3.26 3.19-4.45 5.03c-1.24 1.83-2.02 3.88-2.31 6.13-0.12 1.42-0.03 2.83 0.27 4.22 0.29 1.39 0.8 2.71 1.51 3.95 0.71 1.25 1.6 2.39 2.67 3.42 1.07 1.04 2.28 1.85 3.64 2.45 1.72 0.83 3.47 1.18 5.25 1.06 2.31-0.06 4.19-0.6 5.65-1.64 1.45-1.02 2.59-2.07 3.42-3.14z"/>
		<path class="st2" d="m101.05 186.71c0.48 0.12 0.83 0.37 1.07 0.75 0.23 0.38 0.3 0.81 0.18 1.29-0.18 0.95-0.42 2.12-0.71 3.51-0.3 1.39-0.67 2.83-1.12 4.31-0.44 1.48-0.99 2.95-1.65 4.4-0.65 1.45-1.43 2.73-2.35 3.82-0.92 1.1-1.97 1.93-3.16 2.49s-2.52 0.69-4 0.4-2.67-0.95-3.56-1.96-1.57-2.19-2.04-3.56c-0.95 1.89-2.3 3.32-4.04 4.27-1.75 0.95-3.72 1.42-5.91 1.42-3.26 0-6.11-0.95-8.54-2.85-2.9-2.19-4.68-5.54-5.33-10.05-0.18-1.07-0.28-2.55-0.31-4.45-0.03-1.89-0.03-3.82 0-5.77 0.03-1.96 0.07-3.75 0.13-5.38s0.15-2.74 0.27-3.33c0.06-0.47 0.28-0.86 0.67-1.15 0.39-0.3 0.82-0.41 1.29-0.36 0.48 0.12 0.86 0.37 1.16 0.75 0.3 0.39 0.41 0.82 0.35 1.29-0.12 1.01-0.21 2.34-0.27 4s-0.09 3.39-0.09 5.2 0.01 3.51 0.04 5.12c0.03 1.59 0.1 2.81 0.23 3.64 0.47 3.38 1.8 5.96 4 7.74 1.84 1.36 3.97 2.04 6.4 2.04 1.36 0 2.68-0.27 3.95-0.8 1.28-0.53 2.27-1.54 2.98-3.02 0.59-1.36 1.04-3.05 1.33-5.07 0.3-2.02 0.51-4.13 0.63-6.36 0.11-2.22 0.18-4.46 0.18-6.72 0-2.25 0.06-4.29 0.18-6.14 0.12-1.12 0.74-1.69 1.87-1.69 1.12 0.12 1.69 0.74 1.69 1.87 0 4.57-0.12 8.54-0.36 11.91-0.24 3.38-0.21 6.29 0.09 8.72 0.18 1.49 0.4 2.69 0.67 3.6 0.27 0.92 0.58 1.63 0.93 2.13 0.35 0.51 0.71 0.86 1.07 1.07s0.68 0.35 0.97 0.4c0.95 0.18 1.83 0 2.63-0.53s1.51-1.27 2.13-2.22c0.63-0.95 1.17-2.05 1.65-3.29s0.87-2.49 1.2-3.73 0.6-2.43 0.84-3.55c0.23-1.13 0.41-2.05 0.53-2.76 0.12-0.47 0.38-0.86 0.8-1.16 0.41-0.27 0.85-0.36 1.33-0.24z"/>
		<path class="st2" d="m139.28 186.71c0.47 0.12 0.84 0.37 1.11 0.75 0.26 0.38 0.34 0.81 0.22 1.29-0.35 2.08-0.73 3.93-1.11 5.56-0.39 1.63-0.81 3.12-1.29 4.49-1.36 3.73-3.05 6.31-5.06 7.74-1.19 0.83-2.52 1.24-4 1.24-3.26 0-5.42-1.75-6.49-5.25-0.3-1.19-0.53-2.56-0.71-4.13s-0.33-3.31-0.45-5.2c-0.12-1.31-0.23-2.68-0.32-4.13-0.08-1.45-0.28-2.98-0.58-4.58-0.35-2.07-1.33-3.76-2.93-5.07-0.95-0.83-2.08-1.47-3.38-1.91-1.31-0.45-2.61-0.64-3.91-0.58-1.31 0.06-2.52 0.4-3.65 1.02s-1.98 1.62-2.58 2.98c-0.54 1.19-0.94 2.52-1.2 4-0.27 1.49-0.43 2.94-0.49 4.36-0.12 2.26-0.18 4.4-0.18 6.45 0 2.04 0.01 3.84 0.04 5.38s0.07 3.26 0.14 5.16c0 0.6-0.2 1.01-0.58 1.24-0.39 0.24-0.82 0.36-1.29 0.36-0.48 0-0.87-0.18-1.2-0.54-0.33-0.35-0.49-0.77-0.49-1.25v-16.89c0-2.08-0.02-4.13-0.04-6.18-0.03-2.04-0.08-3.95-0.13-5.73 0-1.13 0.56-1.75 1.69-1.87 1.13 0 1.75 0.57 1.87 1.69 1.6-2.19 3.82-3.41 6.67-3.65 1.9-0.18 3.81-0.02 5.74 0.49 1.92 0.5 3.69 1.43 5.29 2.8 1.12 1.01 2 2.1 2.62 3.29s1.1 2.46 1.43 3.82 0.53 2.82 0.62 4.36 0.19 3.11 0.31 4.71c0.3 3.56 0.64 6.27 1.02 8.14 0.39 1.87 1.17 2.92 2.36 3.16 1.06 0.18 1.98-0.03 2.75-0.62 0.95-0.65 1.78-1.67 2.49-3.07 0.71-1.39 1.32-2.87 1.82-4.44s0.9-3.08 1.2-4.53 0.5-2.59 0.63-3.42c0.11-0.47 0.37-0.86 0.75-1.16 0.39-0.31 0.82-0.4 1.29-0.28z"/>
		<path class="st2" d="m178.76 186.71c0.36 0.06 0.68 0.29 0.98 0.71 0.3 0.41 0.41 0.86 0.35 1.33-0.35 2.32-0.99 4.41-1.91 6.27-0.92 1.87-2.04 3.6-3.38 5.2s-2.8 3.1-4.4 4.49c-1.6 1.4-3.29 2.74-5.07 4.05 0 1.66 0.03 3.32 0.09 4.98s0.14 3.41 0.23 5.25 0.18 3.81 0.26 5.91c0.09 2.1 0.16 4.4 0.23 6.89 0 1.72-0.17 3.7-0.49 5.92-0.33 2.22-0.93 4.32-1.83 6.31-0.89 1.99-2.07 3.71-3.55 5.16s-3.38 2.21-5.69 2.27h-0.27c-2.19 0-4.09-0.62-5.69-1.87s-2.92-2.81-3.96-4.71-1.76-3.96-2.18-6.18-0.57-4.28-0.44-6.18c0.18-2.96 0.9-5.64 2.18-8.05 1.27-2.4 2.85-4.61 4.71-6.62 1.87-2.02 3.93-3.89 6.18-5.61s4.45-3.44 6.58-5.16l-0.18-5.15c-0.95 1.84-2.43 3.29-4.45 4.35-2.02 1.07-4.09 1.6-6.22 1.6-3.73 0-6.84-1.19-9.33-3.56s-4-5.45-4.54-9.25c-0.35-2.73-0.18-5.48 0.53-8.27 0.71-2.78 1.93-5.21 3.64-7.29 1.13-1.36 2.51-2.51 4.14-3.43s3.4-1.38 5.29-1.38c3.73 0 6.79 1.27 9.16 3.83 0.36 0.35 0.67 0.71 0.94 1.07 0.27 0.35 0.55 0.74 0.85 1.16v-4.45c0-0.48 0.18-0.87 0.53-1.2 0.35-0.32 0.77-0.49 1.24-0.49s0.89 0.18 1.24 0.53c0.36 0.35 0.53 0.77 0.53 1.24-0.12 4.63-0.19 9.25-0.22 13.87s0.07 9.34 0.31 14.14c1.01-0.83 2.01-1.69 3.02-2.58s1.92-1.78 2.75-2.67c1.72-1.89 3.04-3.69 3.96-5.38s1.52-3.57 1.82-5.65c0.12-0.47 0.36-0.86 0.71-1.16 0.37-0.27 0.82-0.36 1.35-0.24zm-20.98 14.4c1.18-1.59 2.02-3.42 2.53-5.47 0.5-2.04 0.6-4.22 0.31-6.53-0.18-1.48-0.52-2.87-1.02-4.18-0.5-1.3-1.2-2.44-2.09-3.42s-1.97-1.76-3.25-2.36c-1.28-0.59-2.74-0.89-4.4-0.89-1.19 0-2.26 0.28-3.2 0.85-0.95 0.57-1.8 1.31-2.54 2.22-0.74 0.92-1.38 1.93-1.91 3.03s-0.95 2.18-1.25 3.24c-0.35 1.19-0.57 2.43-0.66 3.73-0.09 1.31-0.03 2.61 0.18 3.91s0.59 2.53 1.16 3.69c0.56 1.16 1.35 2.18 2.36 3.07 1.18 1.01 2.44 1.65 3.78 1.91 1.33 0.27 2.77 0.4 4.31 0.4 1.12 0 2.16-0.29 3.11-0.89 0.95-0.59 1.81-1.36 2.58-2.31zm-3.3 46.77c1.66-0.06 3.01-0.68 4.05-1.87s1.87-2.61 2.49-4.27 1.04-3.41 1.24-5.25c0.21-1.84 0.31-3.41 0.31-4.72-0.06-3.37-0.16-6.73-0.31-10.04-0.14-3.32-0.28-6.76-0.4-10.32-2.02 1.54-3.96 3.07-5.82 4.58-1.87 1.51-3.54 3.11-5.02 4.8-1.48 1.68-2.71 3.51-3.69 5.47s-1.56 4.12-1.74 6.49c-0.12 1.13-0.03 2.57 0.27 4.31 0.29 1.75 0.8 3.44 1.51 5.07s1.66 3.01 2.84 4.13c1.19 1.15 2.62 1.68 4.27 1.62z"/>
		<path class="st2" d="m202.77 186.71c1.12 0.29 1.54 0.98 1.25 2.04-0.83 3.03-1.56 5.63-2.18 7.83-0.62 2.19-1.52 4.09-2.71 5.69-1.72 2.25-3.59 3.82-5.6 4.71-1.49 0.65-2.96 0.98-4.45 0.98-1.66 0-3.29-0.34-4.89-1.03-1.6-0.68-2.97-1.7-4.09-3.07-1.07-1.36-1.85-2.73-2.35-4.09s-0.85-2.77-1.03-4.22-0.23-2.97-0.18-4.53c0.06-1.57 0.12-3.3 0.18-5.2 0-0.12 0.02-0.93 0.05-2.44 0.02-1.51 0.07-3.42 0.13-5.74 0.06-2.31 0.11-4.86 0.13-7.65 0.03-2.78 0.08-5.5 0.13-8.13 0.06-2.64 0.1-5.05 0.13-7.25 0.03-2.19 0.04-3.88 0.04-5.07 0-1.6 0.08-3.29 0.27-5.07 0.18-1.78 0.51-3.51 1.02-5.2 0.5-1.69 1.21-3.29 2.13-4.8s2.09-2.77 3.51-3.78c1.6-1.06 3.35-1.6 5.25-1.6h0.09c3.26 0 5.86 1.07 7.82 3.2 2.91 3.14 4.03 8.3 3.38 15.47-0.3 3.2-1.16 6.55-2.58 10.05s-3.15 6.96-5.2 10.4-4.21 6.77-6.49 10-4.41 6.18-6.36 8.85c0 1.13-0.03 2.32-0.09 3.6s-0.03 2.55 0.09 3.83c0.12 1.27 0.39 2.52 0.8 3.73s1.07 2.36 1.96 3.42c1.01 1.31 2.4 2.15 4.18 2.53 1.78 0.39 3.44 0.25 4.98-0.4 0.71-0.36 1.41-0.83 2.09-1.42s1.35-1.33 2-2.22c1.01-1.36 1.81-2.99 2.4-4.89s1.27-4.27 2.05-7.12c0.11-0.47 0.38-0.86 0.8-1.16 0.42-0.28 0.86-0.37 1.34-0.25zm-21.88-37.08c0 1.3-0.02 3.26-0.04 5.87-0.03 2.61-0.07 5.42-0.13 8.45-0.06 3.02-0.12 6.06-0.18 9.11s-0.12 5.68-0.18 7.87c1.6-2.14 3.34-4.55 5.2-7.25 1.87-2.69 3.64-5.52 5.29-8.45 1.66-2.94 3.1-5.93 4.31-8.98s1.94-5.97 2.18-8.76c0.53-6.16-0.3-10.43-2.49-12.8-1.36-1.42-3.11-2.13-5.24-2.13h-0.09c-1.78 0-3.23 0.64-4.36 1.91s-2 2.8-2.62 4.58-1.05 3.65-1.29 5.6c-0.24 1.96-0.36 3.61-0.36 4.98z"/>
		<path class="st2" d="m233.53 186.71c1.01 0.29 1.43 0.98 1.25 2.04-0.83 4.33-2.09 7.84-3.78 10.54s-3.93 4.82-6.71 6.36c-2.73 1.48-5.83 2.22-9.34 2.22-2.13 0-4.18-0.36-6.14-1.07s-3.65-2.01-5.07-3.91c-0.95-1.18-1.75-2.62-2.4-4.31s-0.98-3.4-0.98-5.12c-0.12-2.73 0.21-5.48 0.98-8.27 0.77-2.78 2.28-5.16 4.53-7.11 2.6-2.14 5.84-3.26 9.69-3.38 1.61-0.06 3.2 0.31 4.81 1.11 1.59 0.8 2.9 1.86 3.91 3.15 1.6 2.14 1.98 4.45 1.15 6.94-1.06 3.26-5.33 5.87-12.8 7.82-1.66 0.42-3.23 0.76-4.71 1.03s-2.7 0.46-3.65 0.58c0 0.83 0.23 1.75 0.71 2.75 0.48 1.01 1.01 1.9 1.6 2.67 0.95 1.3 2.12 2.22 3.51 2.75 1.4 0.53 2.95 0.8 4.67 0.8 3.02 0 5.63-0.59 7.83-1.78 2.25-1.25 4.11-3.01 5.56-5.29s2.53-5.32 3.24-9.11c0.12-0.47 0.39-0.86 0.8-1.16 0.42-0.28 0.86-0.37 1.34-0.25zm-29.43 2.04c-0.12 0.48-0.18 0.98-0.18 1.51v1.6c0.95-0.12 2.1-0.31 3.47-0.58s2.81-0.61 4.36-1.02c2.13-0.53 3.85-1.08 5.16-1.64 1.3-0.56 2.33-1.08 3.07-1.56 0.74-0.47 1.26-0.9 1.55-1.29 0.3-0.38 0.48-0.7 0.54-0.93 0.3-0.88 0.3-1.75 0-2.57-0.3-0.83-0.77-1.54-1.42-2.14-0.65-0.59-1.42-1.06-2.31-1.42-0.89-0.35-1.75-0.53-2.58-0.53-1.19 0-2.46 0.21-3.82 0.62-1.36 0.42-2.6 1.1-3.73 2.05-2.1 1.71-3.46 4.34-4.11 7.9z"/>
	
	


	
		<path class="st3" d="m34.692 79.429c-1.13-1.43-1.56-0.77-2.57 0.45-1.28 1.54-2.61 3.03-3.87 4.59-2.82 3.52-5.39 7.25-7.51 11.23-2.05 3.88-3.72 8.14-3.91 12.57-0.14 3.53 0.99 7.62 4.56 9.11 2.97 1.23 6.41-0.02 7.05-3.35 0.71-3.69-1.43-7.58-3.3-10.61-2.28-3.71-5.26-6.99-8.5-9.89-3.04-2.74-6.77-5.63-10.66-7.06-1.26-0.47-1.63 0.1-2.12 1.24-0.79 1.83-1.45 3.78-1.96 5.71-0.76 2.88-1.05 5.89-0.85 8.86 0.41 6.02 2.97 11.94 7.95 15.55l49.27 0.11c5.62-4.09 8.37-11.54 8.07-18.3-0.16-3.59-1.08-7.1-2.42-10.42-0.28-0.71-0.9-2.92-1.57-3.05-0.32-0.06-1.09 0.42-1.37 0.54-5.94 2.61-11.3 7.3-15.46 12.19-2.39 2.82-4.51 6.02-5.78 9.51-0.8 2.22-1.54 5.16-0.32 7.37 1.51 2.72 5.44 2.68 7.7 0.99 6.46-4.83 2.08-15.89-0.81-21.34-3.15-5.96-7.39-11.32-11.93-16.28l-0.68-0.7"/>
	
	<line class="st3" x1="8.5916" x2="58.242" y1="122.53" y2="122.53"/>
	<path class="st3" d="m18.492 87.589s5.12-9.8-1.7-9.59c0 0-6.61 1.6 1.7 9.59z"/>
	<path class="st3" d="m49.262 87.609s8-7.63 1.48-9.63c0 0-6.77-0.61-1.48 9.63z"/>
	<path class="st3" d="m33.512 74.569s6.5-8.95-0.28-9.73c-0.01 0-6.78 0.61 0.28 9.73z"/>


	
		<path class="st2" d="m118.19 134.01c1.12 0.3 1.54 0.98 1.24 2.04-0.83 3.03-1.56 5.63-2.18 7.83-0.63 2.19-1.53 4.09-2.72 5.69-1.72 2.25-3.59 3.82-5.6 4.72-1.48 0.65-2.96 0.98-4.44 0.98-1.66 0-3.29-0.34-4.89-1.03-1.6-0.69-2.97-1.7-4.09-3.07-1.07-1.36-1.85-2.73-2.35-4.09-0.51-1.36-0.85-2.77-1.03-4.22s-0.23-2.96-0.18-4.53c0.06-1.57 0.12-3.31 0.18-5.21 0-0.11 0.02-0.93 0.05-2.44 0.03-1.52 0.07-3.43 0.13-5.74s0.11-4.86 0.13-7.65c0.03-2.78 0.07-5.5 0.13-8.14s0.11-5.05 0.13-7.25c0.03-2.19 0.05-3.88 0.05-5.07 0-1.6 0.09-3.29 0.27-5.07s0.51-3.52 1.02-5.2c0.5-1.69 1.21-3.29 2.13-4.8s2.09-2.77 3.51-3.78c1.6-1.07 3.35-1.6 5.24-1.6h0.09c3.26 0 5.87 1.07 7.82 3.2 2.9 3.14 4.03 8.3 3.38 15.47-0.3 3.2-1.16 6.55-2.58 10.05s-3.16 6.96-5.2 10.4c-2.05 3.44-4.21 6.77-6.49 10-2.28 3.23-4.4 6.18-6.36 8.85 0 1.13-0.03 2.33-0.09 3.6s-0.03 2.55 0.09 3.82 0.39 2.52 0.8 3.73c0.41 1.22 1.07 2.36 1.96 3.43 1.01 1.3 2.4 2.15 4.18 2.53 1.78 0.39 3.44 0.25 4.98-0.4 0.71-0.35 1.41-0.83 2.09-1.42s1.35-1.33 2-2.22c1.01-1.36 1.81-2.99 2.4-4.89 0.59-1.89 1.27-4.27 2.04-7.11 0.12-0.48 0.39-0.86 0.8-1.15 0.44-0.29 0.88-0.39 1.36-0.26zm-21.88-37.09c0 1.31-0.02 3.26-0.04 5.87-0.03 2.61-0.08 5.42-0.13 8.45-0.06 3.02-0.12 6.06-0.18 9.12-0.06 3.05-0.12 5.67-0.18 7.87 1.6-2.13 3.34-4.55 5.2-7.25 1.87-2.7 3.63-5.51 5.29-8.44 1.66-2.94 3.1-5.93 4.32-8.98 1.21-3.05 1.94-5.97 2.18-8.76 0.53-6.17-0.3-10.43-2.49-12.8-1.36-1.42-3.11-2.14-5.25-2.14h-0.09c-1.78 0-3.23 0.64-4.35 1.91-1.13 1.27-2 2.8-2.62 4.58s-1.05 3.65-1.29 5.6c-0.25 1.95-0.37 3.61-0.37 4.97z"/>
		<path class="st2" d="m160.24 136.05c-1.01 6.64-2.46 11.49-4.36 14.54s-4.27 4.58-7.12 4.58c-3.85 0-6.34-2.58-7.47-7.74-1.25 2.67-2.88 4.62-4.89 5.87-2.01 1.24-4.27 1.87-6.76 1.87-2.02 0-3.88-0.37-5.6-1.11s-3.2-1.78-4.45-3.11c-1.24-1.34-2.22-2.96-2.93-4.89s-1.06-4.08-1.06-6.45c0-2.25 0.35-4.44 1.06-6.58 0.71-2.13 1.69-4.02 2.93-5.65 1.25-1.63 2.72-2.94 4.41-3.91 1.69-0.98 3.48-1.47 5.38-1.47 2.49 0 4.73 0.61 6.71 1.83 1.99 1.21 3.57 2.95 4.76 5.2 0-0.24-0.01-0.74-0.04-1.51s0-1.57 0.09-2.4 0.27-1.57 0.53-2.22c0.27-0.65 0.72-0.98 1.38-0.98 0.53 0 0.98 0.18 1.33 0.53 0.36 0.36 0.54 0.77 0.54 1.25l-0.09 1.24c-0.18 2.49-0.29 4.86-0.35 7.11-0.06 2.26-0.09 4.33-0.09 6.22 0 3.32 0.16 5.88 0.49 7.69s0.74 3.13 1.25 3.96c0.5 0.83 1.02 1.32 1.56 1.46 0.53 0.15 0.98 0.22 1.33 0.22 1.3 0 2.45-0.66 3.42-2 0.98-1.33 1.78-2.89 2.4-4.67s1.11-3.57 1.47-5.38c0.35-1.81 0.62-3.19 0.8-4.13 0.18-0.95 0.77-1.42 1.78-1.42 0.47 0 0.89 0.19 1.25 0.58 0.34 0.39 0.46 0.88 0.34 1.47zm-30.58 15.56c1.66 0 3.11-0.37 4.36-1.11 1.24-0.74 2.28-1.7 3.11-2.89s1.45-2.55 1.87-4.09c0.41-1.54 0.62-3.08 0.62-4.62 0-4.15-0.95-7.41-2.84-9.78-1.9-2.37-4.36-3.56-7.38-3.56-1.37 0-2.67 0.39-3.91 1.16s-2.35 1.82-3.29 3.15c-0.95 1.33-1.69 2.86-2.22 4.58s-0.8 3.5-0.8 5.33c0 3.74 0.98 6.64 2.94 8.72 1.93 2.07 4.45 3.11 7.54 3.11z"/>
	
	


	
		<path class="st2" d="m278.09 184.03c0.47 0 0.87 0.18 1.2 0.53 0.32 0.36 0.49 0.78 0.49 1.25v19.65c0 7.35-0.35 13.78-1.06 19.29s-1.63 10.28-2.76 14.32c-0.48 1.72-1.1 3.51-1.87 5.38-0.77 1.86-1.73 3.59-2.89 5.16s-2.55 2.86-4.18 3.87-3.51 1.51-5.64 1.51c-1.96 0-3.74-0.38-5.34-1.16-1.6-0.77-2.97-1.81-4.09-3.11-1.13-1.3-2-2.83-2.62-4.58s-0.94-3.6-0.94-5.56c0-3.02 0.94-5.76 2.8-8.22 1.87-2.46 4.16-4.46 6.89-6 0.41-0.24 0.86-0.28 1.33-0.13s0.83 0.43 1.07 0.84c0.3 0.48 0.37 0.93 0.22 1.38-0.15 0.44-0.46 0.78-0.93 1.02-2.02 1.13-3.82 2.64-5.42 4.54-1.6 1.89-2.4 4.09-2.4 6.58 0 1.36 0.19 2.71 0.58 4.05 0.39 1.33 0.98 2.5 1.78 3.51s1.79 1.82 2.98 2.45c1.19 0.62 2.55 0.93 4.09 0.93 1.6 0 3-0.43 4.22-1.29s2.27-1.94 3.16-3.24 1.65-2.76 2.27-4.36c0.63-1.6 1.14-3.11 1.56-4.53 1.42-4.98 2.35-10.14 2.8-15.47 0.44-5.33 0.72-11.05 0.85-17.16v-5.65c0-1.33 0.01-2.76 0.04-4.27s0.04-2.93 0.04-4.27v-5.47c0-0.47 0.18-0.89 0.53-1.25s0.77-0.54 1.24-0.54z"/>
	


	
		<path class="st2" d="m211.47 240.87c0.28 0.07 0.5 0.21 0.65 0.44 0.16 0.22 0.2 0.48 0.13 0.75-0.21 1.21-0.42 2.29-0.65 3.24-0.22 0.95-0.48 1.82-0.75 2.62-0.8 2.18-1.78 3.68-2.96 4.51-0.94 0.66-1.99 0.88-3.17 0.68-1.49-0.28-2.56-1.87-3.22-4.77-0.35 0.76-0.78 1.49-1.3 2.18-1.21 1.46-2.78 2.32-4.72 2.6-1.07 0.14-2.17 0.04-3.29-0.28-1.13-0.33-2.12-0.86-2.99-1.58-1.52-1.35-2.44-3.2-2.75-5.55-0.24-1.63-0.15-3.24 0.29-4.85 0.43-1.61 1.15-3.02 2.15-4.23 0.58-0.69 1.35-1.33 2.28-1.92s2-0.88 3.22-0.88c2.18 0 3.97 0.74 5.39 2.23 0.1 0.14 0.21 0.27 0.31 0.37 0.1 0.11 0.19 0.23 0.26 0.36v-6.4c0-1.88 0.01-3.74 0.03-5.57s0.03-3.78 0.03-5.84v-7.18c0-0.28 0.11-0.52 0.31-0.73 0.21-0.21 0.45-0.31 0.73-0.31s0.51 0.1 0.7 0.31 0.28 0.45 0.28 0.73v26.29c0 0.76 0.04 1.62 0.1 2.57 0.07 0.95 0.16 1.93 0.26 2.93 0.1 1.1 0.24 2.11 0.42 3.01 0.17 0.9 0.36 1.7 0.57 2.39 0.11 0.31 0.24 0.63 0.39 0.96 0.16 0.33 0.36 0.6 0.6 0.83s0.52 0.35 0.83 0.39c0.31 0.03 0.67-0.11 1.09-0.41 0.55-0.42 1.03-1.03 1.45-1.84s0.76-1.67 1.04-2.57c0.27-0.9 0.51-1.77 0.7-2.62s0.32-1.51 0.39-1.99c0.07-0.28 0.21-0.5 0.44-0.68 0.23-0.21 0.48-0.26 0.76-0.19zm-12.86 8.35c0.73-0.9 1.23-1.96 1.5-3.19 0.28-1.23 0.33-2.5 0.16-3.81-0.28-2.04-0.93-3.61-1.97-4.72-1.04-1.07-2.47-1.61-4.3-1.61-0.63 0-1.23 0.19-1.82 0.57s-1.14 0.88-1.66 1.51c-0.8 0.96-1.37 2.1-1.74 3.39-0.36 1.3-0.46 2.64-0.29 4.02 0.28 1.87 0.98 3.3 2.13 4.3 0.55 0.49 1.2 0.84 1.95 1.06 0.74 0.23 1.67 0.34 2.78 0.34 0.62 0 1.21-0.17 1.76-0.52 0.55-0.33 1.05-0.79 1.5-1.34z"/>
		<path class="st2" d="m234.5 240.87c0.27 0.07 0.48 0.21 0.62 0.44 0.14 0.22 0.17 0.48 0.1 0.75-0.1 0.55-0.24 1.24-0.41 2.05-0.18 0.81-0.39 1.65-0.65 2.52-0.26 0.86-0.58 1.72-0.96 2.57s-0.84 1.59-1.38 2.23c-0.53 0.64-1.15 1.12-1.84 1.45s-1.47 0.41-2.33 0.23c-0.87-0.17-1.56-0.55-2.08-1.14s-0.92-1.28-1.2-2.08c-0.55 1.11-1.34 1.94-2.35 2.49-1.02 0.56-2.17 0.83-3.45 0.83-1.9 0-3.56-0.56-4.98-1.66-1.69-1.28-2.73-3.23-3.11-5.86-0.11-0.63-0.16-1.49-0.18-2.6s-0.02-2.23 0-3.37 0.04-2.19 0.07-3.13c0.04-0.95 0.09-1.6 0.15-1.95 0.04-0.28 0.17-0.5 0.39-0.67 0.23-0.17 0.48-0.24 0.76-0.21 0.27 0.07 0.5 0.21 0.67 0.44s0.24 0.48 0.21 0.75c-0.07 0.59-0.12 1.37-0.16 2.34s-0.05 1.98-0.05 3.03 0.01 2.05 0.02 2.98c0.02 0.93 0.06 1.64 0.13 2.12 0.27 1.97 1.05 3.48 2.33 4.51 1.07 0.8 2.32 1.19 3.73 1.19 0.79 0 1.56-0.16 2.31-0.46 0.74-0.32 1.32-0.9 1.74-1.77 0.34-0.8 0.6-1.78 0.77-2.96 0.18-1.18 0.3-2.41 0.37-3.71s0.1-2.6 0.1-3.91c0-1.32 0.04-2.51 0.11-3.58 0.07-0.66 0.43-0.98 1.09-0.98 0.66 0.07 0.99 0.43 0.99 1.09 0 2.66-0.07 4.98-0.21 6.95s-0.12 3.66 0.05 5.08c0.1 0.87 0.24 1.56 0.39 2.11 0.15 0.53 0.34 0.95 0.54 1.24s0.42 0.5 0.62 0.62c0.21 0.12 0.4 0.2 0.57 0.23 0.55 0.11 1.06 0 1.53-0.31 0.46-0.31 0.88-0.74 1.25-1.3 0.36-0.55 0.68-1.19 0.96-1.92 0.27-0.73 0.51-1.45 0.7-2.18s0.35-1.42 0.49-2.07c0.14-0.66 0.24-1.19 0.31-1.61 0.07-0.28 0.22-0.5 0.46-0.68 0.27-0.15 0.54-0.2 0.81-0.13z"/>
	
	

<path class="st2" d="m344.36 234c0.47 0.12 0.83 0.37 1.07 0.75 0.24 0.39 0.29 0.82 0.18 1.29-0.48 2.26-0.96 4.55-1.47 6.89-0.5 2.34-1.2 4.4-2.09 6.18-0.77 1.54-1.84 2.93-3.2 4.18-1.37 1.25-3.02 1.87-4.98 1.87-1.19 0-2.27-0.3-3.25-0.89s-1.79-1.48-2.45-2.67c-0.77-1.54-1.33-3.73-1.69-6.58-0.12-0.77-0.21-1.71-0.27-2.8-0.06-1.1-0.13-2.17-0.23-3.2-0.09-1.04-0.15-1.93-0.18-2.66-0.03-0.74-0.04-1.14-0.04-1.2-0.06-0.59-0.12-1.3-0.18-2.13s-0.18-1.65-0.35-2.45c-0.18-0.8-0.44-1.56-0.8-2.27-0.35-0.71-0.86-1.27-1.51-1.69-0.83-0.53-2.04-0.99-3.64-1.38-1.6-0.38-3.41-0.72-5.42-1.02-0.12 1.25-0.33 2.73-0.63 4.45-0.29 1.72-2.08 17.1-2.55 20.3-0.06 0.48-0.27 0.85-0.62 1.12-0.36 0.27-0.77 0.37-1.25 0.31-0.47-0.12-0.87-0.37-1.2-0.75-0.33-0.39-0.43-0.82-0.31-1.29 0.35-1.96 2.07-16.82 2.38-18.75 0.3-1.93 0.53-3.89 0.71-5.91-1.19-0.23-2.39-0.64-3.6-1.2s-2.12-1.38-2.71-2.44c-0.24-0.42-0.39-0.98-0.44-1.69-0.06-0.71 0.15-1.51 0.62-2.4 0.71-1.3 1.5-2.1 2.35-2.4 0.86-0.29 1.52-0.44 2-0.44 0.89 0.06 1.69 0.31 2.4 0.76 0.71 0.44 1.29 1.02 1.74 1.73 0.44 0.71 0.8 1.51 1.06 2.4 0.27 0.89 0.4 1.77 0.4 2.67 2.32 0.29 4.36 0.7 6.14 1.2s3.23 1.08 4.35 1.73c0.89 0.54 1.63 1.25 2.22 2.14s1.05 1.85 1.38 2.89c0.32 1.04 0.55 2.12 0.67 3.25s0.21 2.16 0.27 3.11c0 1.3 0.06 2.55 0.18 3.73 0.06 1.01 0.13 2.06 0.22 3.15 0.09 1.1 0.19 2 0.31 2.71 0.05 0.47 0.14 1.1 0.27 1.87 0.12 0.77 0.3 1.52 0.53 2.27 0.24 0.74 0.56 1.39 0.98 1.96 0.42 0.56 0.95 0.87 1.6 0.93 1.3 0.12 2.4-0.22 3.29-1.02s1.63-1.8 2.22-2.98c0.83-1.6 1.52-3.56 2.09-5.87 0.56-2.31 0.99-4.41 1.29-6.31 0.12-0.48 0.39-0.86 0.8-1.16 0.42-0.32 0.86-0.4 1.34-0.29zm-33.7-13.87c0-0.59-0.15-1.32-0.45-2.18s-0.86-1.29-1.69-1.29c-0.35 0-0.65 0.16-0.89 0.49-0.23 0.33-0.35 0.67-0.35 1.02 0 0.3 0.15 0.55 0.44 0.76 0.3 0.21 0.62 0.4 0.98 0.58 0.35 0.18 0.72 0.31 1.11 0.4s0.67 0.16 0.85 0.22z"/>
<path class="st2" d="m360.54 234c0.47 0.12 0.84 0.37 1.11 0.75 0.27 0.39 0.34 0.82 0.22 1.29-0.42 2.08-0.79 3.95-1.11 5.61-0.33 1.66-0.73 3.17-1.2 4.53-1.37 3.73-3.06 6.31-5.07 7.73-1.19 0.83-2.55 1.24-4.09 1.24-1.19 0-2.33-0.3-3.42-0.89s-1.97-1.51-2.62-2.76c-0.48-0.83-0.86-1.79-1.16-2.89s-0.51-2.36-0.62-3.78c-0.3-2.6-0.42-5.64-0.35-9.11 0.05-3.47 0.23-7.51 0.53-12.14 0.11-1.12 0.74-1.68 1.87-1.68 1.13 0.12 1.69 0.74 1.69 1.87 0 4.56-0.12 8.53-0.35 11.91-0.24 3.38-0.21 6.28 0.09 8.71 0.18 1.49 0.42 2.69 0.71 3.6 0.3 0.92 0.61 1.63 0.93 2.13 0.33 0.51 0.67 0.86 1.02 1.07 0.36 0.21 0.68 0.34 0.98 0.4 1.48 0.24 2.73-0.26 3.73-1.51 1.01-1.25 1.85-2.77 2.53-4.58s1.22-3.68 1.6-5.6c0.39-1.93 0.69-3.42 0.93-4.49 0.12-0.48 0.37-0.86 0.76-1.16 0.39-0.28 0.82-0.36 1.29-0.25zm-14.4-23.03c-0.83 0-1.6-0.25-2.31-0.76-0.71-0.5-1.16-1.11-1.33-1.82-0.18-0.71-0.03-1.31 0.44-1.78 0.47-0.48 1.12-0.71 1.96-0.71 0.83 0 1.58 0.24 2.27 0.71 0.68 0.47 1.11 1.06 1.29 1.78 0.18 0.71 0.04 1.32-0.41 1.82-0.44 0.51-1.08 0.76-1.91 0.76z"/>
<path class="st2" d="m398.87 234c0.47 0.12 0.84 0.37 1.11 0.75 0.27 0.39 0.34 0.82 0.22 1.29-0.35 2.08-0.73 3.93-1.11 5.56-0.39 1.63-0.82 3.13-1.29 4.49-1.36 3.73-3.05 6.31-5.06 7.74-1.19 0.83-2.52 1.24-4 1.24-3.27 0-5.43-1.75-6.5-5.24-0.3-1.19-0.53-2.57-0.71-4.14s-0.33-3.3-0.44-5.2c-0.12-1.3-0.23-2.68-0.31-4.13-0.09-1.45-0.29-2.98-0.58-4.58-0.35-2.07-1.33-3.77-2.94-5.07-0.95-0.83-2.07-1.47-3.38-1.91s-2.61-0.64-3.91-0.58c-1.31 0.06-2.52 0.4-3.65 1.02s-1.98 1.62-2.58 2.98c-0.54 1.19-0.94 2.52-1.2 4-0.27 1.48-0.43 2.94-0.48 4.36-0.12 2.25-0.18 4.4-0.18 6.44s0.01 3.84 0.04 5.38c0.04 1.54 0.07 3.26 0.14 5.16 0 0.59-0.2 1.01-0.58 1.24-0.39 0.24-0.81 0.36-1.29 0.36s-0.87-0.18-1.2-0.53c-0.33-0.36-0.49-0.77-0.49-1.25v-16.89c0-2.08-0.01-4.14-0.04-6.18s-0.07-3.96-0.13-5.73c0-1.12 0.57-1.75 1.69-1.87 1.13 0 1.75 0.57 1.87 1.69 1.6-2.19 3.82-3.41 6.66-3.65 1.9-0.17 3.81-0.01 5.74 0.49 1.92 0.51 3.69 1.44 5.29 2.8 1.12 1.01 2 2.1 2.62 3.29s1.1 2.46 1.42 3.82 0.53 2.82 0.62 4.36 0.19 3.11 0.31 4.71c0.3 3.56 0.64 6.27 1.02 8.14 0.39 1.87 1.17 2.92 2.36 3.15 1.07 0.18 1.98-0.03 2.76-0.62 0.95-0.65 1.78-1.67 2.49-3.07 0.71-1.39 1.32-2.88 1.82-4.45 0.51-1.57 0.9-3.08 1.2-4.53s0.51-2.59 0.62-3.42c0.12-0.48 0.37-0.86 0.76-1.16 0.38-0.29 0.81-0.37 1.29-0.26z"/>
<path class="st2" d="m429.72 234c1.01 0.29 1.42 0.98 1.25 2.04-0.83 4.33-2.11 7.84-3.82 10.54-1.72 2.7-3.94 4.82-6.67 6.36-2.73 1.48-5.84 2.22-9.34 2.22-2.13 0-4.18-0.36-6.13-1.07-1.96-0.71-3.65-2.02-5.07-3.91-1.01-1.36-1.79-2.9-2.36-4.63-0.56-1.72-0.9-3.52-1.02-5.42-0.11-2.61 0.22-5.26 1.02-7.96s2.29-4.96 4.49-6.8c1.3-1.07 2.77-1.93 4.4-2.58s3.4-0.92 5.29-0.8c1.65 0.12 3.41 0.58 5.24 1.38s3.26 2.03 4.27 3.69c1.24 2.08 1.34 4.21 0.27 6.4-0.23 0.48-0.57 0.79-1.02 0.94s-0.91 0.1-1.38-0.14-0.79-0.58-0.93-1.02c-0.14-0.45-0.11-0.9 0.13-1.38 0.42-0.89 0.46-1.7 0.13-2.44-0.32-0.74-0.84-1.41-1.56-2-0.71-0.59-1.54-1.05-2.49-1.38s-1.81-0.49-2.58-0.49c-2.96 0-5.45 0.85-7.47 2.58-1.66 1.36-2.83 3.14-3.51 5.34-0.68 2.19-0.96 4.36-0.85 6.49 0.06 1.42 0.3 2.83 0.71 4.22 0.41 1.4 1.07 2.69 1.96 3.87 1.54 2.02 3.41 3.15 5.6 3.38 4.09 0.53 7.56 0 10.4-1.6 2.25-1.25 4.12-3.01 5.6-5.29s2.58-5.32 3.29-9.11c0.12-0.48 0.38-0.86 0.8-1.16 0.43-0.3 0.87-0.38 1.35-0.27z"/>
<path class="st2" d="m460.48 234c1.01 0.29 1.43 0.98 1.25 2.04-0.83 4.33-2.09 7.84-3.78 10.54s-3.93 4.82-6.71 6.36c-2.73 1.48-5.84 2.22-9.33 2.22-2.14 0-4.18-0.36-6.14-1.07s-3.65-2.02-5.07-3.91c-0.95-1.19-1.75-2.63-2.39-4.31-0.65-1.69-0.98-3.39-0.98-5.12-0.12-2.72 0.21-5.48 0.98-8.27 0.76-2.78 2.28-5.15 4.53-7.11 2.61-2.14 5.84-3.26 9.69-3.38 1.6-0.06 3.2 0.31 4.81 1.11 1.6 0.8 2.9 1.86 3.91 3.16 1.6 2.13 1.99 4.44 1.15 6.93-1.06 3.26-5.33 5.87-12.8 7.83-1.66 0.41-3.23 0.76-4.71 1.02-1.48 0.27-2.7 0.46-3.65 0.58 0 0.83 0.24 1.75 0.72 2.76 0.47 1.01 1.01 1.9 1.6 2.66 0.94 1.31 2.12 2.22 3.51 2.76 1.39 0.53 2.95 0.8 4.67 0.8 3.02 0 5.63-0.59 7.82-1.77 2.25-1.25 4.11-3.01 5.56-5.29s2.54-5.32 3.24-9.11c0.12-0.48 0.39-0.86 0.8-1.16 0.4-0.3 0.85-0.38 1.32-0.27zm-29.43 2.05c-0.12 0.48-0.18 0.98-0.18 1.51v1.6c0.95-0.11 2.1-0.31 3.47-0.57 1.36-0.27 2.81-0.61 4.36-1.03 2.13-0.53 3.85-1.08 5.16-1.64 1.3-0.56 2.32-1.08 3.06-1.56 0.74-0.47 1.26-0.9 1.55-1.29 0.3-0.38 0.48-0.69 0.54-0.93 0.3-0.89 0.3-1.75 0-2.58s-0.77-1.54-1.42-2.13-1.42-1.07-2.31-1.42-1.75-0.53-2.58-0.53c-1.19 0-2.46 0.21-3.82 0.62-1.36 0.42-2.61 1.1-3.74 2.04-2.07 1.71-3.44 4.35-4.09 7.91z"/>
<path class="st4" d="m261.29 216.67c41.4 21.52 52.04-19.8 44.78-31.65 0 0-9.55-15.91-30.35-12.07s-17.26 17.8-11.63 19.76"/>


<path class="st5" d="m320.52 281.08c-27.11 27.73-64.94 44.94-106.78 44.94-55.88 0-104.59-30.69-130.2-76.14"/>


<path class="st5" d="m127.9 54.479c24.28-17.09 53.89-27.12 85.84-27.12 80.41 0 145.97 63.55 149.21 143.16"/>
<path class="st6" d="m130.82 301.73s21.31 10.61 31.42 15.29"/>

	
	<path class="st0" d="m328.8 100.03c-1.66-2.69-3.24-5.73-4.82-9-1.57-3.27-3.15-6.76-4.78-10.37s-3.32-7.35-5.1-11.11c-1.79-3.76-3.68-7.56-5.68-11.29-2-3.74-4.13-7.41-6.35-10.94-2.23-3.53-4.56-6.92-6.97-10.09-2.43-3.2-5.19-5.97-8.1-8.23s-5.97-4.03-8.97-5.24c-3.01-1.21-5.96-1.85-8.61-2-0.66-0.04-1.31-0.04-1.93-0.03-0.62 0.02-1.22 0.06-1.8 0.12-1.15 0.13-2.19 0.34-3.12 0.59-1.86 0.5-3.24 1.16-4.15 1.64-0.23 0.12-0.43 0.24-0.6 0.33-0.18 0.1-0.31 0.18-0.42 0.25-0.11 0.06-0.19 0.12-0.23 0.18s-0.05 0.1-0.05 0.1l0.72 1.17s0.04 0.01 0.11 0 0.16-0.05 0.27-0.12 0.25-0.16 0.4-0.24c0.15-0.09 0.33-0.19 0.54-0.31 0.84-0.45 2.1-1.07 3.81-1.55 0.86-0.24 1.82-0.45 2.89-0.57 0.53-0.06 1.09-0.11 1.67-0.13s1.18-0.02 1.81 0.01c2.49 0.12 5.3 0.7 8.19 1.83 2.89 1.12 5.87 2.79 8.71 4.96 2.85 2.17 5.58 4.83 7.98 7.92 2.41 3.12 4.75 6.47 7 9.96 2.24 3.49 4.38 7.13 6.4 10.83 4.05 7.4 7.62 15.06 10.95 22.26 1.66 3.6 3.27 7.08 4.88 10.34s3.22 6.31 4.93 9"/>
	
		
			<path class="st0" d="m207.34 58.679c-1.1 4.68 4.34 15.18 5.27 15.95 0.92 0.77 16.87-15.09 18.02-11.77s-13.34 11.75-15 13.32c-2.92 2.77-2.17 9.09-1.61 10.99 1.14 3.88 4.84 9.89 5.25 11.06 0.4 1.17 12-1.45 14.14-3.49 2.13-2.05 3.63-8.03 3.16-9.39s0.34-10.03 2.13-7.37 0.05 16.58-0.14 17.3 9.66-3.17 12.47-4.37c2.21-0.95 6.36-5.27 3.35-11.72-3.96-8.49-6.67-13.71-4.88-17.59 2.38-5.16 7.9 12.97 7.92 15.58 0.03 2.61 1.36 5.21 1.4 8.47s27.26-14.58 20.4-21.17c-6.86-6.58-13.19-6.58-13.82-10.29s2.39-4.84 4.56-1.36c2.53 4.07 8.04 8.56 11.29 11.17 2.84 2.29 12.45-13.34 11.11-17.24-1.35-3.9-14.97-4.66-17.88-6.49s-3.37-6.88-0.32-5c3.05 1.87 10.97 8.25 18.73 7.24 0 0 3.84-8.36-0.95-13.38s-14.74-7.26-24.83-4.21-9.97-1.37-10.58-3.84c0 0-6.85-22.84-18.75-20.97-15.76 2.46-24.03 19.08-25.22 21.42-2.31 4.57 0.81 6.16 0.81 6.16s16.29-7.2 25.72-3.77c2.67 0.97 1.4 3.63-0.56 3.66-1.96 0.02-12.1-2.15-17.17 0.25-5.07 2.41-12.91 9.52-13.98 12.28-2.54 6.54 0.53 12.91 0.53 12.91s9.9-3.86 14.63-6.59 11.62-4.23 12.18-2.68c0.44 1.23-1.34 2.07-5.2 3.55-2.15 0.83-21.04 6.52-22.18 11.38zm47.28-19.41 0.03 0.02c2.1 1.23 4.92 2.41 6.61 4.34 1.58 1.51 2.28 4.73-0.99 4.11-1.74-0.43-4.06-3.08-4.98-4.32-1.55-1.97-5.27-6.92-0.67-4.15zm-9.72 8.91h0.02c1.86 0.37 4.57 3.16 5.94 4.55 1.13 1.22 1.78 4.95-0.87 5.02-1.59 0.02-3.51-3.64-4.12-4.93-0.54-0.77-0.98-1.89-1.24-2.69-0.36-1.1-0.59-2 0.27-1.95zm-8.49-9.36c-1.23 0.8-7.88 3.09-6.38-0.76 0.92-2.47 8.54-1.06 6.38 0.76zm-0.45 24.47c1.01-2.23 2.88 1.46 2.09 2.99-0.54 1.04-1.69 1.13-2.11-0.04-0.13-0.5-0.11-2.52 0.02-2.95zm-6-6.4c1.69 0.02 2.36 0.94 1.13 2.24-0.55 0.49-3.32 1.77-3.96 1.88-3.5 0.14 0.36-4.15 2.83-4.12z"/>
			
			
			
			
			
			
			
			
			
			
			
			
			
			
			
			
			
			
			
			
			
			
			
			
			
			
			
			
		
	


	
		
			<path class="st0" d="m205.07 334.49c-2.89-0.52-4.25-0.88-4.1-1.79 0.18-1.16 5.19-1.02 8.86 0.26s11.1 2.67 11.1 2.67 1.3-4.85-1.34-9.09c-1.11-1.78-7.54-5.71-11.39-6.72-3.86-1.01-10.66 1.86-12.03 2.1s-2.62-1.45-0.88-2.48c6.14-3.65 18.47-0.78 18.47-0.78s1.97-1.53-0.25-4.41c-1.14-1.48-9.12-11.99-20.46-11.62-8.56 0.28-10.31 17.14-10.31 17.14-0.1 1.8 0.57 4.88-6.88 4.08-7.45-0.79-14.1 2.09-16.79 6.24-2.68 4.15 1.11 9.48 1.11 9.48 5.55-0.32 10.24-5.83 12.13-7.54 1.88-1.71 2.23 1.87 0.44 3.54s-11.2 4-11.63 6.9c-0.42 2.91 8.36 12.55 10.05 10.57 1.92-2.26 5.18-6.12 6.4-9.3 1.05-2.72 3.31-2.33 3.36 0.34 0.05 2.68-4.37 3.51-8.29 9.02s17.46 14.37 17.06 12.08c-0.41-2.29 0.18-4.28-0.15-6.1-0.33-1.83 1.13-15.23 3.47-11.94 1.76 2.47 0.56 6.48-1.07 12.94-1.24 4.91 2.22 7.37 3.89 7.74 2.12 0.47 9.52 1.88 9.29 1.4s-3.29-9.97-2.39-12.07c0.9-2.09 2.62 3.85 2.47 4.87s1.69 4.99 3.45 6.14 10.21 1.44 10.34 0.56c0.13-0.87 1.92-5.56 2.2-8.42 0.14-1.4-0.17-5.92-2.58-7.47-1.36-0.88-12.61-4.85-12.24-7.32 0.36-2.47 13.61 6.49 14.15 5.83s2.95-8.72 1.56-11.84c-1.45-3.25-15.4-4.72-17.02-5.01zm-18.51 0.7c-0.48 0.99-1.75 3.15-2.91 3.68-2.2 0.87-2.14-1.47-1.24-2.74 0.92-1.57 2.74-2.77 4.04-3.91l0.02-0.02c2.85-2.53 0.91 1.41 0.09 2.99zm8.34 3.28c-0.08 0.59-0.24 1.43-0.51 2.04-0.26 0.99-1.11 3.8-2.22 3.99-1.86 0.31-1.9-2.39-1.27-3.39 0.77-1.16 2.29-3.46 3.55-3.97l0.01-0.01c0.59-0.14 0.54 0.53 0.44 1.34zm8.6-10.37c1.56 2.49-3.39 1.78-4.36 1.38-1.75-0.99 3.38-2.98 4.36-1.38zm-0.39 20.47c-0.14 0.87-0.95 0.97-1.47 0.31-0.76-0.96 0.06-3.79 1.06-2.37 0.15 0.29 0.43 1.7 0.41 2.06zm5.45-4.83c-0.46 0.01-2.56-0.51-3.01-0.79-1.03-0.74-0.68-1.47 0.49-1.71 1.72-0.34 4.99 2.14 2.52 2.5z"/>
			
			
			
			
			
			
			
			
			
			
			
			
			
			
			
			
			
			
			
			
			
			
			
			
			
			
			
			
		
	


	<path class="st0" d="m294.4 75.259c-1.15-1.79-2.03-3.58-2.23-5.09-0.39-2.96-0.56-4.72-1.38-6.54-0.05-0.08-0.09-0.15-0.14-0.22-0.09-0.14-0.17-0.27-0.25-0.4-0.09-0.14-0.17-0.27-0.25-0.4-0.09-0.14-0.17-0.27-0.25-0.4-0.09-0.14-0.17-0.27-0.25-0.4-0.09-0.14-0.17-0.27-0.25-0.4-0.09-0.14-0.17-0.27-0.25-0.4-0.09-0.14-0.17-0.27-0.25-0.4-0.09-0.14-0.17-0.27-0.25-0.4-1.78-2.69-0.89-3.82-2.69-8.26-1.94-4.79-2.04-5.75-1.22-9.91s1.01-5.74 0.63-9.23c-0.34-3.14-0.4-7.65 0.96-10.07s0.98-2.1 1.44-5.36 0.87-4.72 2.19-7.38c1.33-2.66 6.55-0.98 8.61-0.45 2.06 0.53 6.62 0.22 9.68 2.08 1.4 0.85 4.44 1.42 6.97 2.4 3 1.15 5.51 2.67 6.74 3.1 2.26 0.79 6.86 3.58 9.79 6.37 0.97 0.92 1.63 1.86 2.2 2.78 0.09 0.13 0.17 0.26 0.25 0.4 0.09 0.13 0.17 0.26 0.25 0.4 0.09 0.13 0.17 0.27 0.25 0.4 0.09 0.13 0.17 0.26 0.25 0.4 0.09 0.13 0.17 0.27 0.25 0.4 0.09 0.13 0.17 0.26 0.25 0.4 0.09 0.13 0.17 0.26 0.25 0.4 0.09 0.13 0.17 0.26 0.25 0.4 0.07 0.11 0.14 0.21 0.2 0.32 0.53 0.67 1.17 1.34 2.02 1.99 3.01 2.3 5.09 3.37 7.31 7.04 0.08 0.13 0.17 0.26 0.25 0.4 0.08 0.13 0.17 0.26 0.25 0.4 0.08 0.13 0.17 0.26 0.25 0.4 0.08 0.13 0.17 0.26 0.25 0.4 0.08 0.13 0.17 0.26 0.25 0.4 0.08 0.13 0.17 0.26 0.25 0.4 0.08 0.13 0.17 0.26 0.25 0.4 0.08 0.13 0.17 0.26 0.25 0.4 0.4 0.62 0.79 1.31 1.2 2.12 0.06 0.12 0.13 0.24 0.2 0.36 0.98 1.39 1.99 2.76 2.88 4.22 0.08 0.13 0.17 0.26 0.25 0.4 0.08 0.13 0.17 0.26 0.25 0.4 0.08 0.13 0.17 0.26 0.25 0.4 0.08 0.13 0.17 0.26 0.25 0.4 0.08 0.13 0.17 0.26 0.25 0.4 0.08 0.13 0.17 0.26 0.25 0.4 0.08 0.13 0.17 0.26 0.25 0.4 0.08 0.13 0.17 0.26 0.25 0.4 0.31 0.49 0.61 0.98 0.89 1.48 1.02 1.86 1.17 4.15 2.36 6.13 3.27 5.45 2.33 7.82 2.92 11.33 0.61 3.67 0.76 5.3 1.73 8.52s0.53 9.13-2.09 10.9-3.27 4.17-5.34 5.9c-1.62 1.34-7.04 2.79-8.64 2.34-5.26-1.45-5.75-5.75-7.62-6.01 0 0 0.84-0.39 1.23 4.6 0.33 4.19-3.28 9.36-7.94 8.68s-8.49 0.35-12.73-3.29c-1.54-1.32-8.02-5.43-10.56-8.36-0.65-0.75-1.19-1.51-1.65-2.24-0.06-0.09-0.11-0.18-0.16-0.26-0.09-0.13-0.17-0.27-0.25-0.4-0.09-0.13-0.17-0.27-0.25-0.4-0.09-0.13-0.17-0.27-0.25-0.4-0.09-0.13-0.17-0.27-0.25-0.4-0.09-0.13-0.17-0.27-0.25-0.4-0.09-0.13-0.17-0.27-0.25-0.4-0.09-0.13-0.17-0.26-0.25-0.4-0.46-0.72-0.87-1.42-1.22-2.09-1.64-1.62-4.75-4.98-6.81-8.28-0.09-0.13-0.17-0.26-0.25-0.4-0.09-0.13-0.17-0.27-0.25-0.4-0.09-0.13-0.17-0.27-0.25-0.4-0.09-0.13-0.17-0.27-0.25-0.4-0.09-0.13-0.17-0.27-0.25-0.4-0.09-0.13-0.17-0.26-0.25-0.4-0.09-0.13-0.17-0.26-0.25-0.4-0.07-0.15-0.15-0.28-0.23-0.42z"/>
	<path class="st0" d="m299.41 72.849c-4.18-5.26-0.81-7.24-0.5-7.52s0.92-2.07-0.17-3.62c-1.26-1.8 0.54-3.19 0.28-4.31-0.6-2.63-6.28-1.24-6.18-3.93 0.09-2.58 1.12-4.42 0.35-5.14-0.73-0.68 0.39-3.1-0.85-3.89-1.93-1.23-4.67-5.29-5.4-7.38-0.59-1.71 3.64-6.24 3.64-6.24s1.29-1 1.11-2.62c-0.18-1.59-0.27-2.47-1.35-3.66-1.02-1.13-1.82-4.88-0.82-6.02 1.01-1.15 1.73-1.65 2.72-2.82 1.09-1.29 0.82-3.41 0.82-3.41 0.13 0.03 0.28 0.11 0.45 0.23 2.94 1.14 8.78 2.92 10.97 5.37 1.93 2.16 5.42-3.14 8.24 2.16 2.07 3.89 1.6 5.55 2.58 6.03 1.09 0.54 2.64 0.7 4.22 0.6 1.36-0.09 2.22 1.93 4.89 3.06 3.49 1.49 5.17 1.81 6.05 4.2 0.57 1.55 1.18 3.25 2.62 5.05 3.66 4.57 2.98 1.77 5.46 4.75 2.47 2.97 2.6 1.58 4.68 1.87 1.28 0.18 0.83 3.15 2.21 5.66 0.87 1.57 3.48 2.32 4.52 4.06 2.7 4.51-7.43 2.14-3.97 7.44 3.46 5.31 5.61 2.15 7.37 5.45 1.76 3.31 3.04 7.47 1.11 10.45-1.93 2.97-0.61 4.12-0.05 7.21 0.53 2.91-3.06 4.13-4.84 7.16s-10.33 1.33-10.33 1.33c-0.21-0.04-1.51 3.98-3.19 4.33-3.05 0.63-4.63 2.39-9.09 2.37-4.46-0.03-6.98-1.16-10.31-5.21-1.47-1.78-3.5-1.04-1.93-3.21 1.47-2.03-2.53-1.42-2.44-3.86s1.74-1.9-0.77-4.22 0.38-2.31-4.09-4.39c-4.49-2.11-3.83-2.07-8.01-7.33z"/>
	
		<path class="st1" d="m307.08 65.739c0.15-0.03 0.3-0.05 0.45-0.08-0.18 0.41-5.24 1.46-5.24 1.51-1.96 0.75-4.15 0.22-6.2 0.57 0.2 0 0.4 0.02 0.6 0.03-0.24 0-0.53 0.12-0.78 0.03 0.52-0.12-0.43-0.14-0.43-0.07 0.6 0.07 0.08 0.03-0.1 0.06 0.28-0.13-0.61-0.08 0.19-0.18-0.09-0.01-0.18-0.01-0.27-0.02 0.14-0.08 0.29-0.11 0.46-0.1-0.05-0.07-0.12-0.11-0.2-0.13 2.33-0.85 5.16 0.14 7.62-0.84-0.13 0.18 0.25-0.17-0.17 0.11 0.98-0.21 4.2-0.44 4.76-1.23-0.21 0.16-0.44 0.26-0.69 0.34 0.08 0.03 0.31-0.09 0 0z"/>
		<path class="st1" d="m307.66 71.909c-0.18 0.03-0.35 0.05-0.53 0.06 0.05-0.07 0.49-0.19 0.55-0.18-0.19-0.04 0.68-0.27 1.07-0.26-0.19-0.59 5.1-0.98 5.41-1.74 1.87-0.55 3.96-0.92 5.75-1.87-0.22 0.07-0.44 0.14-0.66 0.19 0.26-0.1 0.53-0.31 0.82-0.32-0.51 0.31 0.51-0.03 0.48-0.1-0.68 0.16-0.09 0 0.08-0.09-0.24 0.23 0.72-0.19-0.14 0.24 0.1-0.03 0.2-0.06 0.29-0.1-0.12 0.14-0.27 0.23-0.46 0.28-0.04 0.02 0.3 0.03 0.26 0.04-2.28 1.72-5.9 1.59-8.42 2.86 0.11-0.04 0.1-0.05-0.03-0.03 0.07-0.04 0.14-0.08 0.21-0.11-1.33 0.44-4.23 1.71-5.55 1.41 0.14 0.03 0.72-0.24 0.87-0.28-0.09-0.03-0.36 0.09 0 0z"/>
		<path class="st1" d="m297.34 73.759c-0.38-0.23-0.13-0.01 0.08-0.15 1-0.22 2.07-0.62 3.24-0.77 0.6 0.28 3.81-0.28 4.27-0.41-0.14 0-0.28-0.01-0.42-0.02 0.01 0 0.83 0.03 0.83 0.02-0.36-0.06-0.11-0.03 0.07-0.05-0.21 0.14 0.03 0.15 0.06 0.19-0.06-0.03-0.53 0.16-0.17 0.22-1.55 0.74-3.63-0.23-5.25 0.62 0.11 0.09-0.19-0.26 0.12-0.1-0.69 0.15-2.95 0.13-3.31 0.64 0.13-0.09 0.3-0.15 0.48-0.19-0.06-0.04-0.22 0.06 0 0z"/>
		<path class="st1" d="m341.08 71.129c-0.2 0.1-0.4 0.19-0.6 0.28 0.05-0.11 0.51-0.4 0.6-0.41-0.51 0.09 1.14-0.55 1.14-0.73 0-0.44 5.01-2.99 4.78-3.31 1.96-2.18 4.52-3.74 5.64-6.81-0.13 0.25-0.28 0.5-0.45 0.73 0.13-0.3 0.28-0.74 0.51-0.98-0.24 0.72 0.42-0.48 0.32-0.52-0.44 0.8-0.06 0.04 0-0.14-0.04 0.38 0.47-0.87 0.05 0.32 0.06-0.12 0.12-0.23 0.17-0.35-0.03 0.04-0.18 0.61-0.2 0.71 0-0.01 0.25-0.26 0.25-0.28-0.63 3.54-4.85 6.33-7.17 8.56 0.11-0.09 0.1-0.1-0.04-0.01l0.21-0.21c-1.5 1.14-4.28 3.49-6.14 3.79 0.22-0.03 0.73-0.51 0.93-0.64-0.11 0.01-0.4 0.25 0 0z"/>
		<path class="st1" d="m329.15 71.119c-0.38-0.18 1.63-1.07 2.33-1.54 0.82-0.54 2.11-1.27 2.64-2.16-0.47 0.2 0.16-0.21 0.22-0.31 0 0.21 0.15 0.09 0.17 0.09-0.05 0.01-0.12 0.39 0.07 0.26-0.22 1.2-2.67 2-3.33 2.82 0.03-0.01-0.09-0.16 0.05-0.13-0.46 0.32-2.41 0.86-2.53 1.21 0.12-0.1 0.25-0.18 0.38-0.24-0.05-0.03-0.16 0.08 0 0z"/>
		<path class="st1" d="m316.87 49.719c-0.11 0.08-0.24 0.15-0.36 0.22 0-0.38 3.63-3.34 3.52-3.48 1.09-1.56 2.81-2.29 3.75-4.11-0.11 0.14-0.23 0.28-0.36 0.41 0 0 0.7-0.82 0.69-0.83-0.37 0.37-0.08 0.06 0.01-0.1 0.13 0.03 0.14 0.11 0.04 0.24 0.05-0.06 0.11-0.12 0.16-0.18-0.01 0.15-0.07 0.28-0.17 0.39 0.08 0.01 0.15-0.02 0.21-0.07-0.61 2.19-3.49 3.41-4.67 5.22-0.09-0.05 0.13 0.01 0.07-0.18-0.76 0.79-3.11 2.08-3.38 2.98 0.15-0.19 0.31-0.36 0.49-0.51-0.07 0.01-0.21 0.2 0 0z"/>
		<path class="st1" d="m337.79 49.719c-0.01 0 0.39-0.33 0.28-0.11-1.44 1.81-4.4 3.88-6.23 5.91 0.13-0.08 0.26-0.16 0.39-0.23 0 0-0.77 0.46-0.76 0.48 0.37-0.18 0.1-0.04-0.03 0.09 0.11-0.25-0.1-0.1-0.16-0.12 0.08-0.01 0.37-0.46 0.03-0.29 0.86-1.56 3.24-2.14 4.21-3.81-0.06-0.03 0.17 0.1-0.04 0.16 0.54-0.58 2.61-1.84 2.67-2.51-0.1 0.15-0.22 0.3-0.36 0.43 0.07 0 0.17-0.17 0 0z"/>
		<path class="st1" d="m327.91 49.939c-0.19 0.13-0.39 0.25-0.59 0.37 0.04-0.12 0.48-0.47 0.57-0.5-0.52 0.17 1.11-0.72 1.09-0.91-0.04-0.35 4.7-3.89 4.49-4.1 1.99-2.45 3.92-4.55 4.98-7.8-0.12 0.27-0.26 0.54-0.39 0.81 0.11-0.35 0.23-0.77 0.43-1.08-0.17 0.78 0.37-0.54 0.3-0.57-0.43 0.88-0.06 0.04 0-0.15-0.03 0.4 0.45-0.95 0.06 0.33 0.05-0.12 0.11-0.25 0.16-0.37-0.04 0.06-0.16 0.63-0.18 0.75 0-0.02 0.23-0.28 0.24-0.31-0.54 3.87-3.99 6.99-6.36 9.79 0.1-0.11 0.09-0.11-0.04-0.01 0.06-0.08 0.13-0.16 0.19-0.25-1.44 1.4-3.92 4.18-5.85 4.77 0.24-0.06 0.7-0.61 0.9-0.77-0.12 0.03-0.39 0.31 0 0z"/>
		
			<path class="st1" d="m321.95 27.729c-0.11 0.36-0.04 0.11 0.23-0.74-0.1 0.83-0.48 1.36-0.73 2.09-0.04 0.11-0.6 1.05-0.2 0.4-0.78 1.27-1.6 4.47-1.74 5.03-0.99 2.28-3.03 5-4.87 7.53 1.29-2.11 2.75-4.56 3.67-6.79 1.04-2.02 2.21-4.13 2.65-6.37 0.01-0.22 0.99-4.1 1.21-4.08 0.16-0.38 0.54-1.2 0.37-0.47 0.29-0.5 0.33-0.81 0.39-0.9 0-0.02 0.13-0.23 0.13-0.25-0.05 0.1-0.12 0.18-0.18 0.28 0.06-0.1 0.13-0.19 0.18-0.29-0.04 0.1-0.1 0.18-0.15 0.28-0.06 0.03 0.12-0.19 0.15-0.27 0-0.01-0.02 0.1-0.01 0.07-0.09 0.21-0.14 0.69-0.25 0.84 0.03-0.08-0.04-0.12 0.07-0.2-0.04 0.19-0.06 0.24-0.05 0.16-0.09 0.24-0.11 0.58-0.3 0.89 0.06-0.15 0.12-0.3 0.18-0.44 0 0.12-0.31 1.04-0.42 1.2 0.09-0.03 0.12-0.08 0.1-0.14 0.02 0.01-0.4 2.17-0.43 2.17z"/>
		
		<g class="st7" transform="translate(-200.57 -116)">
			<path class="st1" d="m498.37 148.04c-0.3-0.04-0.09-0.02 0.62 0.08-0.52 0.07-2.31-0.47-2.11-0.39-1.06-0.43-4.02-0.55-4.35-0.59-1.77-0.68-4.21-2.78-6.48-3.5 2.09 0.51 3.89 1.88 5.84 2.43 1.7 0.73 3.56 1.32 5.42 1.24 0.2-0.03 3.51 0.23 3.48 0.53 0.28 0.11 1.02 0.5 0.38 0.33 0.44 0.33 0.61 0.31 0.82 0.44-0.03 0.03 0 0.05 0.09 0.06-0.08-0.05-0.14-0.12-0.21-0.17 0.07 0.06 0.15 0.12 0.22 0.18-0.05-0.03-0.1-0.05-0.15-0.09-0.03-0.03-0.06-0.05-0.09-0.07 0.06 0.04 0.16 0.13 0.23 0.16-0.17-0.09-0.62-0.14-0.73-0.24 0.06 0.02 0.1-0.05 0.16 0.06-0.2-0.02-0.62-0.15-0.85-0.29 0.12 0.04 0.24 0.09 0.36 0.14-0.08 0.01-0.86-0.23-0.98-0.31 0.03 0.08 0.07 0.11 0.11 0.08 0 0.02-1.79-0.14-1.78-0.08z"/>
		</g>
		<path class="st1" d="m292.94 39.359c-0.15-0.02-0.3-0.05-0.45-0.08 0.25-0.25 5.42 0.13 5.43 0.04 2.04-0.35 4.05 0.53 6.16 0.28-0.2-0.01-0.39-0.04-0.59-0.07 0.24 0.02 0.53-0.09 0.76 0.01-0.52 0.1 0.42 0.16 0.42 0.09-0.57-0.1-0.1-0.03 0.09-0.05-0.28 0.13 0.6 0.09-0.19 0.17 0.09 0.01 0.18 0.02 0.27 0.02-0.14 0.08-0.29 0.11-0.46 0.09 0.05 0.07 0.11 0.11 0.2 0.14-2.34 0.72-5.23-0.64-7.68-0.25 0.19-0.15-0.31 0.13 0.19-0.07-1.13-0.01-4.01-0.8-4.92-0.27 0.25-0.04 0.51-0.06 0.77-0.05-0.08-0.05-0.33 0 0 0z"/>
		<path class="st1" d="m292.81 49.809c0.01 0.02-0.52-0.14-0.27-0.15 2.52 0.19 6.05 1.39 9.18 0.66-0.16 0.01-0.33 0.01-0.49 0-0.01 0 0.99-0.01 0.99 0.01-0.5-0.06-0.06-0.03 0.08-0.04-0.27 0.12 0.07 0.18 0.07 0.15 0 0-0.37 0.08-0.41 0.09 0.07 0.03 0.13 0.06 0.2 0.09-1.82 0.77-4.38-0.06-6.23 0.03 0.02 0.07-0.04-0.2 0.16-0.05-1.02-0.12-3.01-1.16-3.88-0.88 0.19 0.02 0.39 0.05 0.6 0.09-0.05-0.05-0.26-0.04 0 0z"/>
		<path class="st1" d="m311 30.169c-0.08 0.14-0.16 0.27-0.25 0.39-0.12-0.32 2.2-5.06 2.19-5.06 0.61-2.02 2.07-3.54 2.65-5.65-0.09 0.18-0.19 0.36-0.29 0.53 0.1-0.22 0.12-0.54 0.31-0.72-0.11 0.53 0.31-0.33 0.24-0.36-0.33 0.51-0.07 0.05-0.01-0.11-0.01 0.31 0.35-0.52 0.07 0.25 0.05-0.08 0.09-0.16 0.14-0.24 0.01 0.16-0.03 0.31-0.11 0.46 0.08-0.02 0.15-0.06 0.2-0.13-0.23 2.48-2.57 4.71-3.26 7.08-0.06-0.2-0.01 0.29 0.01-0.2-0.52 1.07-2.25 3.4-2.19 4.5 0.09-0.25 0.19-0.5 0.3-0.74-0.08 0.05-0.12 0.31 0 0z"/>
		<path class="st1" d="m308.36 31.569c-0.4 0.04 1.75-3.89 1.71-5-0.28 0.33 0.04-0.21 0.05-0.32 0.58 1.04-0.72 1.93-0.71 3.71 0.09-0.08-0.21 0.11-0.04-0.12-0.22 0.67-0.67 1.36-1.01 1.97-0.2 0.12-0.2 0.04 0-0.24-0.06 0-0.07 0.14 0 0z"/>
		<path class="st1" d="m301.33 61.039c-0.28-0.08 2.07 0.06 2.46 0.07 0.94 0 2.17 0.14 3.07-0.12-0.48-0.15 0.27-0.03 0.34-0.05-0.12 0.1-0.05 0.12 0.04 0.17-0.03-0.02-0.33 0.15-0.13 0.19-0.66 0.4-3.62-0.03-3.73-0.05-0.45-0.04-2.89-0.27-2.05-0.21-0.04-0.01-0.16-0.01 0 0z"/>
		<path class="st1" d="m298.73 24.879c0.07 0.4-4-1.48-5.11-1.37 0.35 0.26-0.21-0.03-0.32-0.03 1.04-0.21 5.04 1.08 5.67 1.37 0.13 0.2 0.05 0.21-0.24 0.03 0.01 0.06 0.14 0.06 0 0z"/>
		<path class="st1" d="m319.22 92.289c0.02 0.01-0.55 0.16-0.33 0 2.03-0.96 5.89-3.24 7.84-5.32-0.14 0.09-0.28 0.18-0.42 0.26 0 0 0.84-0.53 0.83-0.54-0.41 0.21-0.1 0.03 0.03-0.09-0.11 0.23 0.01 0.12 0.17 0.12-0.04 0.13-0.13 0.23-0.25 0.3 0.07 0.03 0.14 0.03 0.21 0.01-1 1.67-3.7 2.49-5.02 3.92 0.03 0.02-0.01-0.23 0.09-0.16-0.89 0.65-3.21 1.08-3.74 1.78 0.19-0.11 0.39-0.2 0.59-0.28-0.07-0.02-0.24 0.12 0 0z"/>
		<path class="st1" d="m342.07 86.009c-0.22-0.01-0.44-0.03-0.66-0.06 0.09-0.07 0.64-0.09 0.72-0.06-0.49-0.17 1.27 0.09 1.35-0.06 0.22-0.38 5.84-0.1 5.8-0.48 2.79-0.91 5.78-0.99 8.28-3.09-0.24 0.15-0.49 0.29-0.75 0.41 0.26-0.19 0.61-0.5 0.93-0.59-0.56 0.5 0.6-0.21 0.54-0.29-0.79 0.47-0.07 0.01 0.08-0.12-0.22 0.31 0.84-0.52-0.11 0.3 0.11-0.07 0.22-0.14 0.32-0.21-0.05 0.02-0.46 0.43-0.53 0.52 0.01-0.01 0.34-0.1 0.36-0.11-2.31 2.76-7.36 3.07-10.49 3.85 0.14-0.03 0.14-0.04-0.03-0.03 0.1-0.03 0.19-0.05 0.29-0.08-1.87 0.24-5.45 0.89-7.21 0.22 0.19 0.05 0.87-0.11 1.11-0.12-0.11-0.05-0.47 0.01 0 0z"/>
	
	
		<path class="st1" d="m301.48 27.819s-0.16-0.09-0.44-0.26c-0.14-0.08-0.31-0.19-0.51-0.29s-0.43-0.23-0.69-0.35c-0.26-0.11-0.53-0.25-0.83-0.37-0.3-0.13-0.62-0.25-0.95-0.36-0.66-0.24-1.37-0.46-2.07-0.71-0.34-0.13-0.69-0.25-1.01-0.4-0.33-0.14-0.63-0.3-0.93-0.44s-0.59-0.28-0.86-0.42c-0.28-0.13-0.52-0.29-0.76-0.41-0.24-0.13-0.44-0.27-0.64-0.38s-0.36-0.22-0.5-0.3c-0.28-0.17-0.45-0.26-0.45-0.26l-0.07 0.07s0.1 0.17 0.29 0.44c0.1 0.14 0.21 0.31 0.37 0.48s0.33 0.38 0.55 0.56c0.22 0.19 0.45 0.4 0.74 0.58 0.27 0.2 0.58 0.37 0.91 0.53 0.33 0.15 0.69 0.28 1.05 0.38 0.36 0.11 0.73 0.2 1.09 0.29 0.73 0.18 1.45 0.33 2.12 0.51 0.34 0.08 0.65 0.18 0.96 0.26s0.59 0.18 0.85 0.26c0.26 0.09 0.5 0.18 0.71 0.26 0.21 0.07 0.39 0.16 0.54 0.22 0.3 0.12 0.47 0.2 0.47 0.2z"/>
		<path class="st1" d="m305.87 36.279s-0.26-0.1-0.72-0.27c-0.22-0.09-0.51-0.18-0.84-0.28-0.33-0.11-0.7-0.21-1.11-0.31-0.41-0.11-0.85-0.21-1.32-0.31s-0.97-0.18-1.49-0.27c-1.03-0.16-2.14-0.34-3.24-0.51-0.55-0.1-1.1-0.18-1.62-0.31-0.53-0.11-1.05-0.22-1.55-0.34-0.5-0.11-0.98-0.23-1.43-0.33-0.45-0.12-0.88-0.22-1.27-0.35-0.2-0.06-0.38-0.12-0.56-0.17-0.17-0.07-0.34-0.13-0.49-0.19-0.31-0.12-0.59-0.21-0.81-0.32-0.44-0.2-0.71-0.31-0.71-0.31l-0.05 0.08s0.2 0.19 0.59 0.51c0.18 0.17 0.44 0.34 0.73 0.53 0.15 0.1 0.31 0.19 0.48 0.29 0.17 0.09 0.36 0.18 0.55 0.27 0.38 0.2 0.82 0.36 1.28 0.53 0.46 0.16 0.96 0.3 1.48 0.42 0.52 0.1 1.06 0.2 1.62 0.25 0.55 0.07 1.11 0.12 1.67 0.18 1.11 0.11 2.22 0.21 3.26 0.31 1.04 0.12 2 0.22 2.82 0.36 0.41 0.06 0.79 0.14 1.11 0.21 0.33 0.07 0.62 0.13 0.85 0.21 0.47 0.13 0.74 0.21 0.74 0.21z"/>
		<path class="st1" d="m309.24 43.009s-1.2-0.11-2.99-0.29-4.19-0.39-6.55-0.77c-0.59-0.11-1.18-0.2-1.75-0.33-0.57-0.12-1.13-0.25-1.67-0.38-1.08-0.25-2.09-0.47-2.95-0.71-0.22-0.06-0.42-0.11-0.62-0.16-0.19-0.06-0.38-0.11-0.55-0.17-0.35-0.1-0.66-0.19-0.91-0.27-0.5-0.17-0.79-0.25-0.79-0.25l-0.04 0.08s0.25 0.18 0.7 0.46c0.22 0.15 0.51 0.31 0.84 0.48 0.33 0.18 0.71 0.36 1.13 0.53 0.42 0.19 0.89 0.35 1.39 0.52s1.03 0.3 1.59 0.43c0.56 0.11 1.14 0.22 1.74 0.29 0.59 0.08 1.2 0.14 1.8 0.21 2.41 0.24 4.82 0.33 6.62 0.35 1.8 0.03 3.01 0.05 3.01 0.05z"/>
		<path class="st1" d="m312.53 49.189s-0.36-0.07-1-0.18c-0.32-0.06-0.7-0.13-1.15-0.18-0.45-0.06-0.95-0.14-1.51-0.19-1.11-0.13-2.4-0.22-3.79-0.28-1.39-0.07-2.86-0.13-4.33-0.24-0.73-0.07-1.46-0.13-2.17-0.24-0.71-0.09-1.4-0.23-2.07-0.35-0.66-0.15-1.31-0.26-1.91-0.42-0.3-0.08-0.6-0.14-0.88-0.23s-0.55-0.17-0.81-0.25c-0.53-0.15-0.98-0.34-1.4-0.49-0.42-0.14-0.78-0.3-1.07-0.43-0.59-0.26-0.94-0.39-0.94-0.39l-0.05 0.08s0.29 0.23 0.83 0.6c0.14 0.1 0.28 0.2 0.44 0.32 0.17 0.11 0.36 0.21 0.55 0.32 0.4 0.22 0.84 0.49 1.37 0.7 0.26 0.11 0.53 0.23 0.81 0.35 0.29 0.11 0.59 0.2 0.9 0.3 0.61 0.23 1.28 0.35 1.97 0.51 0.7 0.1 1.42 0.22 2.16 0.26 0.74 0.07 1.48 0.09 2.23 0.12 1.49 0.04 2.97 0.03 4.35 0.03 1.38 0.01 2.67 0.01 3.78 0.06 0.55 0.01 1.06 0.06 1.5 0.09 0.45 0.03 0.84 0.07 1.16 0.11 0.64 0.07 1.01 0.12 1.01 0.12z"/>
		<path class="st1" d="m316.63 55.679s-0.43-0.02-1.18-0.05c-0.38-0.02-0.83-0.04-1.36-0.04-0.52 0.01-1.12-0.02-1.76 0.02-0.64 0.03-1.35 0.04-2.08 0.11-0.74 0.05-1.52 0.12-2.32 0.2s-1.63 0.17-2.47 0.26-1.69 0.17-2.54 0.23c-0.85 0.04-1.7 0.11-2.53 0.08-0.83 0.01-1.65-0.05-2.43-0.1-0.78-0.08-1.54-0.14-2.25-0.28-0.72-0.1-1.38-0.26-1.99-0.41-0.62-0.12-1.16-0.34-1.66-0.48s-0.92-0.31-1.27-0.44c-0.7-0.27-1.11-0.41-1.11-0.41l-0.04 0.08s0.36 0.23 1.01 0.62c0.16 0.1 0.34 0.21 0.54 0.32 0.2 0.12 0.43 0.21 0.67 0.33 0.24 0.11 0.5 0.23 0.77 0.35 0.14 0.06 0.28 0.13 0.42 0.19 0.15 0.05 0.3 0.1 0.46 0.15 0.31 0.1 0.64 0.21 0.97 0.32s0.7 0.17 1.07 0.26c0.73 0.2 1.53 0.25 2.34 0.36 0.82 0.02 1.67 0.07 2.53 0 0.86-0.03 1.72-0.13 2.58-0.21 0.86-0.1 1.71-0.21 2.55-0.34 0.84-0.12 1.66-0.24 2.46-0.36 0.79-0.12 1.56-0.22 2.29-0.3 0.73-0.1 1.42-0.16 2.06-0.22 0.64-0.07 1.23-0.08 1.75-0.12s0.98-0.04 1.35-0.04c0.75-0.01 1.18-0.01 1.18-0.01z"/>
		<path class="st1" d="m318.95 59.959s-1.61 0.33-4.01 0.87c-2.41 0.53-5.6 1.29-8.82 1.82-0.81 0.12-1.61 0.25-2.41 0.34-0.8 0.1-1.58 0.16-2.34 0.24-0.76 0.07-1.49 0.14-2.18 0.18s-1.35 0.09-1.96 0.09c-0.3 0.01-0.6 0.02-0.87 0.03-0.28-0.01-0.54-0.01-0.79-0.02-0.5 0-0.93 0-1.29-0.03-0.71-0.05-1.13-0.06-1.13-0.06l-0.02 0.09s0.39 0.12 1.1 0.29c0.35 0.11 0.78 0.18 1.29 0.26 0.25 0.04 0.52 0.08 0.8 0.12 0.28 0.02 0.58 0.05 0.89 0.07s0.64 0.06 0.97 0.06h1.04c0.36 0.01 0.72-0.01 1.1-0.04 0.37-0.02 0.76-0.05 1.14-0.08 0.77-0.11 1.57-0.19 2.37-0.35 0.8-0.14 1.61-0.3 2.42-0.47 3.23-0.68 6.4-1.56 8.76-2.24 2.37-0.68 3.95-1.1 3.95-1.1z"/>
		<path class="st1" d="m321.93 63.889s-0.38 0.17-1.05 0.47c-0.33 0.15-0.74 0.33-1.21 0.54-0.46 0.22-1 0.42-1.58 0.65-0.58 0.22-1.21 0.47-1.88 0.73-0.68 0.23-1.39 0.48-2.13 0.73-0.37 0.13-0.75 0.25-1.13 0.38s-0.78 0.23-1.17 0.35c-0.79 0.23-1.59 0.46-2.39 0.7-0.81 0.2-1.62 0.39-2.42 0.59s-1.58 0.37-2.35 0.53c-0.76 0.18-1.49 0.36-2.19 0.52-0.7 0.15-1.36 0.29-1.97 0.43s-1.17 0.28-1.67 0.37c-0.5 0.1-0.93 0.19-1.29 0.27-0.72 0.15-1.13 0.26-1.13 0.26l0.01 0.09s0.42 0 1.16-0.02c0.37-0.01 0.82-0.03 1.33-0.05 0.52-0.02 1.09-0.08 1.72-0.17 0.63-0.08 1.31-0.17 2.02-0.28 0.72-0.11 1.46-0.3 2.23-0.46 0.77-0.18 1.56-0.37 2.35-0.63 0.79-0.24 1.6-0.48 2.41-0.72 0.8-0.27 1.59-0.54 2.38-0.81 0.39-0.14 0.78-0.26 1.16-0.4 0.38-0.15 0.75-0.29 1.12-0.43 0.73-0.29 1.45-0.55 2.11-0.83 0.66-0.3 1.28-0.58 1.86-0.84 0.57-0.26 1.1-0.49 1.55-0.74 0.45-0.24 0.85-0.44 1.17-0.61 0.65-0.34 1.02-0.53 1.02-0.53z"/>
		<path class="st1" d="m323.42 68.819s-1.33 0.68-3.31 1.72c-0.5 0.26-1.03 0.54-1.6 0.83-0.57 0.28-1.17 0.6-1.8 0.89-0.62 0.31-1.28 0.6-1.95 0.89-0.33 0.15-0.68 0.27-1.02 0.41s-0.68 0.27-1.03 0.39-0.7 0.24-1.05 0.35c-0.35 0.1-0.7 0.19-1.05 0.29-0.35 0.11-0.7 0.15-1.04 0.24-0.34 0.08-0.68 0.16-1.02 0.2-0.34 0.06-0.67 0.12-0.99 0.18-0.32 0.05-0.64 0.08-0.95 0.13-0.62 0.1-1.21 0.11-1.76 0.16-0.55 0.06-1.05 0.02-1.5 0.04s-0.84-0.01-1.17-0.02c-0.65-0.03-1.03-0.03-1.03-0.03l-0.02 0.09s0.36 0.11 1 0.27c0.16 0.04 0.34 0.09 0.53 0.14s0.41 0.07 0.64 0.1 0.47 0.06 0.73 0.1c0.13 0.02 0.26 0.03 0.4 0.05 0.14 0 0.28 0.01 0.42 0.01 0.57 0.02 1.19 0.06 1.84-0.01 0.33-0.02 0.66-0.04 1.01-0.08 0.34-0.05 0.69-0.11 1.04-0.17s0.7-0.16 1.06-0.25c0.35-0.1 0.72-0.18 1.07-0.31 0.35-0.12 0.71-0.24 1.07-0.36 0.35-0.13 0.7-0.28 1.05-0.42 0.35-0.13 0.7-0.29 1.04-0.44 0.34-0.16 0.69-0.3 1.02-0.47 0.66-0.33 1.31-0.65 1.93-0.99 1.24-0.66 2.36-1.34 3.31-1.92 1.91-1.17 3.19-1.93 3.19-1.93z"/>
		<path class="st1" d="m327.19 73.299s-0.34 0.17-0.94 0.45-1.46 0.69-2.5 1.16-2.26 1-3.57 1.55c-1.32 0.54-2.73 1.09-4.16 1.59-0.72 0.23-1.43 0.48-2.15 0.68-0.71 0.21-1.42 0.41-2.1 0.59-1.36 0.38-2.63 0.73-3.73 0.98-0.28 0.07-0.54 0.13-0.79 0.19-0.25 0.05-0.49 0.1-0.72 0.15-0.45 0.1-0.85 0.19-1.17 0.24-0.65 0.12-1.03 0.2-1.03 0.2l0.01 0.09s0.38 0.02 1.06 0.03c0.34 0.02 0.75 0 1.21-0.03 0.47-0.02 1-0.06 1.57-0.14 0.58-0.06 1.19-0.17 1.84-0.3 0.65-0.12 1.33-0.29 2.02-0.48 0.69-0.21 1.4-0.43 2.11-0.7 0.71-0.25 1.42-0.54 2.14-0.81 1.42-0.57 2.82-1.19 4.12-1.79 0.65-0.31 1.27-0.6 1.86-0.9 0.58-0.3 1.14-0.58 1.64-0.85 1.01-0.53 1.85-0.99 2.43-1.32 0.58-0.32 0.91-0.51 0.91-0.51z"/>
		<path class="st1" d="m328.94 78.129s-1.37 0.69-3.39 1.8c-2.03 1.09-4.7 2.6-7.45 3.93-0.69 0.33-1.38 0.65-2.07 0.94-0.69 0.28-1.37 0.58-2.03 0.82-0.65 0.28-1.3 0.49-1.91 0.74-0.3 0.11-0.61 0.2-0.89 0.3-0.29 0.1-0.57 0.21-0.84 0.27-0.55 0.13-1.04 0.32-1.49 0.39-0.23 0.05-0.44 0.09-0.63 0.13-0.2 0.05-0.38 0.09-0.54 0.1-0.66 0.08-1.04 0.14-1.04 0.14v0.09s0.38 0.05 1.07 0.09c0.34 0.05 0.75-0.01 1.23-0.02s1.01-0.12 1.59-0.2c0.58-0.1 1.19-0.26 1.84-0.44 0.64-0.2 1.32-0.41 1.99-0.69 0.68-0.28 1.36-0.59 2.04-0.93s1.37-0.7 2.05-1.07c1.36-0.73 2.69-1.51 3.92-2.25 1.24-0.74 2.37-1.45 3.35-2.06 1.95-1.22 3.28-2 3.27-2z"/>
		<path class="st1" d="m330.76 81.889s-1.23 0.73-3.06 1.85c-1.83 1.11-4.25 2.64-6.73 4.05-0.62 0.34-1.24 0.7-1.87 1.01-0.62 0.32-1.23 0.64-1.82 0.94-0.59 0.31-1.16 0.61-1.7 0.89-0.27 0.14-0.54 0.27-0.79 0.4-0.25 0.14-0.5 0.26-0.74 0.37-0.48 0.22-0.91 0.45-1.31 0.61-0.4 0.17-0.74 0.35-1.03 0.45-0.58 0.23-0.91 0.37-0.91 0.37l0.02 0.09s0.36-0.04 0.98-0.15c0.32-0.04 0.69-0.15 1.12-0.25s0.9-0.26 1.42-0.44c0.52-0.16 1.06-0.4 1.63-0.64 0.57-0.25 1.16-0.53 1.76-0.84 0.59-0.33 1.2-0.66 1.8-1.04 0.61-0.37 1.21-0.75 1.82-1.13 2.42-1.54 4.78-3.17 6.52-4.42 1.75-1.24 2.93-2.05 2.93-2.05z"/>
		<path class="st1" d="m332.13 84.089s-0.92 0.96-2.31 2.4c-0.69 0.71-1.51 1.55-2.37 2.44-0.87 0.89-1.82 1.81-2.79 2.71-0.49 0.44-0.98 0.89-1.48 1.3-0.49 0.42-0.99 0.82-1.47 1.21s-0.94 0.77-1.37 1.13c-0.44 0.35-0.85 0.69-1.25 0.98-0.19 0.15-0.38 0.3-0.56 0.43s-0.36 0.26-0.52 0.37c-0.32 0.24-0.61 0.45-0.85 0.61-0.48 0.32-0.75 0.53-0.75 0.53l0.04 0.08s0.32-0.1 0.87-0.32c0.28-0.1 0.6-0.25 0.97-0.43s0.78-0.39 1.22-0.65c0.44-0.25 0.9-0.55 1.38-0.88 0.48-0.32 0.96-0.71 1.45-1.1 0.47-0.42 0.97-0.84 1.43-1.31 0.48-0.46 0.95-0.93 1.42-1.41 1.87-1.92 3.62-3.93 4.89-5.47 1.28-1.53 2.13-2.56 2.13-2.56z"/>
		<path class="st1" d="m334.26 85.239s-0.22 0.21-0.6 0.59c-0.2 0.18-0.4 0.44-0.66 0.71s-0.51 0.61-0.81 0.97c-0.57 0.72-1.21 1.59-1.84 2.56-0.64 0.96-1.29 2-1.95 3.03-0.65 1.04-1.35 2.04-1.97 2.99s-1.17 1.86-1.68 2.61c-0.24 0.38-0.48 0.73-0.69 1.03-0.2 0.31-0.38 0.58-0.54 0.8-0.31 0.44-0.48 0.7-0.48 0.7l0.07 0.07s0.24-0.19 0.66-0.54c0.1-0.09 0.22-0.19 0.34-0.29 0.12-0.12 0.24-0.24 0.38-0.37 0.27-0.27 0.57-0.57 0.87-0.93 0.15-0.18 0.31-0.36 0.47-0.55 0.15-0.2 0.31-0.4 0.47-0.62 0.33-0.42 0.64-0.89 0.96-1.37 0.3-0.49 0.61-1 0.9-1.53s0.59-1.07 0.89-1.6c0.6-1.07 1.19-2.14 1.77-3.13 0.28-0.5 0.58-0.96 0.85-1.41 0.28-0.44 0.54-0.86 0.8-1.24 0.26-0.37 0.49-0.73 0.72-1.01 0.23-0.29 0.41-0.56 0.6-0.75 0.35-0.4 0.55-0.63 0.55-0.63z"/>
		<path class="st1" d="m335.16 88.029s-0.25 0.9-0.63 2.25c-0.19 0.67-0.41 1.46-0.65 2.3-0.23 0.84-0.53 1.72-0.81 2.61-0.16 0.43-0.32 0.87-0.48 1.29-0.15 0.43-0.34 0.83-0.5 1.24-0.16 0.4-0.28 0.8-0.43 1.17s-0.28 0.72-0.39 1.04c-0.06 0.16-0.11 0.32-0.17 0.47-0.06 0.14-0.12 0.28-0.18 0.41-0.11 0.26-0.2 0.49-0.27 0.69-0.14 0.39-0.21 0.62-0.21 0.62l0.08 0.05s0.16-0.17 0.42-0.5c0.13-0.16 0.29-0.36 0.46-0.6 0.18-0.23 0.37-0.5 0.53-0.82 0.18-0.31 0.36-0.65 0.55-1.01 0.21-0.36 0.34-0.77 0.51-1.18 0.15-0.42 0.31-0.85 0.42-1.3 0.12-0.45 0.25-0.9 0.37-1.36 0.22-0.92 0.45-1.83 0.61-2.69 0.19-0.86 0.33-1.67 0.45-2.36 0.24-1.38 0.39-2.31 0.39-2.31z"/>
		<path class="st1" d="m336.06 87.259s0.28 0.09 0.78 0.25 1.21 0.38 2.08 0.62c0.86 0.25 1.88 0.51 2.98 0.74 0.55 0.11 1.12 0.23 1.7 0.33 0.58 0.11 1.18 0.18 1.77 0.27 0.6 0.07 1.2 0.15 1.79 0.19 0.59 0.06 1.18 0.08 1.75 0.08s1.12-0.05 1.64-0.11c0.52-0.08 1.01-0.13 1.45-0.25 0.45-0.1 0.85-0.2 1.2-0.33 0.35-0.12 0.66-0.22 0.9-0.35 0.48-0.23 0.75-0.37 0.75-0.37l-0.03-0.09s-0.3 0.04-0.81 0.14c-0.25 0.05-0.57 0.08-0.92 0.13-0.35 0.06-0.76 0.09-1.19 0.13-0.43 0.05-0.91 0.05-1.41 0.09-0.5 0.01-1.03 0.03-1.58 0.03-0.55 0.02-1.12 0.02-1.7 0.02-0.58 0.01-1.17-0.04-1.76-0.06-0.59-0.05-1.18-0.09-1.76-0.16-0.58-0.06-1.15-0.14-1.7-0.22-1.1-0.17-2.12-0.35-3-0.52s-1.6-0.34-2.11-0.45c-0.51-0.12-0.8-0.19-0.8-0.19z"/>
		<path class="st1" d="m334.06 84.919s0.37 0.05 1.02 0.14c0.32 0.05 0.73 0.05 1.18 0.09 0.46 0.04 0.98 0.01 1.54 0.02 0.57 0 1.17-0.06 1.82-0.09 0.64-0.07 1.32-0.12 2.02-0.24 0.35-0.05 0.7-0.1 1.06-0.16s0.72-0.13 1.08-0.2c0.73-0.13 1.46-0.3 2.2-0.45 0.73-0.18 1.47-0.34 2.18-0.53 0.72-0.18 1.42-0.39 2.09-0.59 0.67-0.21 1.31-0.45 1.91-0.69 0.6-0.25 1.17-0.47 1.68-0.71s0.98-0.46 1.39-0.67 0.76-0.39 1.04-0.57c0.57-0.33 0.89-0.54 0.89-0.54l-0.04-0.08s-0.36 0.11-0.98 0.32c-0.62 0.2-1.51 0.49-2.57 0.84-1.06 0.34-2.3 0.74-3.62 1.17-0.66 0.23-1.34 0.45-2.04 0.68-0.69 0.24-1.41 0.43-2.12 0.65-0.72 0.19-1.43 0.39-2.15 0.55-0.36 0.08-0.71 0.17-1.06 0.25-0.35 0.07-0.7 0.14-1.04 0.21-0.68 0.15-1.35 0.22-1.98 0.33-0.63 0.07-1.23 0.16-1.79 0.2-0.56 0.03-1.07 0.09-1.52 0.08s-0.85 0.02-1.17-0.01c-0.65-0.05-1.03-0.07-1.03-0.07z"/>
		<path class="st1" d="m331.89 81.069s0.37 0.01 1.03 0.02c0.33 0 0.72 0.03 1.18 0.01s0.97-0.03 1.54-0.05c0.56-0.05 1.17-0.1 1.82-0.15 0.64-0.08 1.32-0.17 2.01-0.29 0.69-0.14 1.42-0.25 2.13-0.44 0.36-0.09 0.73-0.17 1.09-0.27s0.72-0.21 1.09-0.31c0.72-0.21 1.44-0.46 2.14-0.71 0.35-0.13 0.69-0.26 1.04-0.4 0.33-0.15 0.67-0.29 0.99-0.44s0.63-0.31 0.93-0.47 0.6-0.31 0.87-0.49c0.28-0.17 0.55-0.34 0.81-0.5 0.26-0.17 0.5-0.34 0.73-0.5 0.47-0.31 0.87-0.65 1.24-0.93 0.36-0.29 0.65-0.56 0.9-0.79 0.48-0.46 0.73-0.73 0.73-0.73l-0.06-0.07s-0.33 0.19-0.88 0.54c-0.29 0.16-0.62 0.37-1.01 0.6-0.4 0.22-0.83 0.49-1.32 0.75-0.48 0.27-1.02 0.55-1.58 0.84-0.57 0.28-1.16 0.59-1.79 0.87-0.31 0.15-0.63 0.3-0.95 0.46-0.33 0.15-0.65 0.29-0.99 0.44-0.33 0.16-0.67 0.28-1.01 0.42-0.34 0.13-0.68 0.28-1.04 0.39l-1.05 0.36c-0.35 0.11-0.71 0.21-1.06 0.31-0.7 0.22-1.4 0.36-2.08 0.53-0.68 0.15-1.34 0.26-1.97 0.39-0.63 0.09-1.23 0.18-1.78 0.26-0.56 0.06-1.06 0.1-1.52 0.15-0.45 0.05-0.85 0.05-1.18 0.07-0.65 0.03-1.03 0.05-1.03 0.05z"/>
		<path class="st1" d="m329.35 77.049s0.37-0.06 1.01-0.16 1.57-0.25 2.67-0.45c0.55-0.1 1.15-0.21 1.78-0.34 0.63-0.12 1.29-0.28 1.97-0.44 0.68-0.18 1.39-0.34 2.09-0.56 0.71-0.2 1.42-0.44 2.14-0.67 0.71-0.26 1.42-0.5 2.1-0.79 0.7-0.26 1.35-0.6 1.99-0.9 0.62-0.35 1.23-0.67 1.76-1.05 0.27-0.18 0.53-0.36 0.79-0.53 0.24-0.19 0.48-0.37 0.7-0.54 0.45-0.34 0.84-0.69 1.18-1 0.17-0.15 0.33-0.3 0.47-0.43 0.14-0.15 0.26-0.28 0.38-0.4 0.46-0.48 0.7-0.76 0.7-0.76l-0.06-0.07s-0.32 0.2-0.85 0.58c-0.27 0.19-0.59 0.41-0.98 0.65-0.38 0.25-0.8 0.53-1.27 0.82-0.23 0.15-0.48 0.3-0.73 0.45-0.26 0.15-0.52 0.3-0.8 0.46-0.54 0.32-1.14 0.62-1.74 0.96-0.61 0.31-1.24 0.65-1.89 0.96-0.65 0.33-1.33 0.6-2.01 0.89-0.69 0.26-1.38 0.53-2.07 0.76-0.69 0.24-1.38 0.44-2.04 0.65-1.34 0.38-2.59 0.72-3.68 0.98-1.08 0.27-1.99 0.47-2.63 0.61s-1 0.22-1 0.22z"/>
		<path class="st1" d="m326.97 72.769s0.4-0.05 1.1-0.14c0.35-0.04 0.78-0.09 1.26-0.19 0.49-0.09 1.04-0.17 1.63-0.31 0.59-0.13 1.24-0.28 1.91-0.48 0.68-0.17 1.37-0.43 2.09-0.68 0.36-0.13 0.71-0.28 1.08-0.43 0.37-0.14 0.73-0.3 1.09-0.48 0.73-0.32 1.45-0.71 2.18-1.09 0.71-0.4 1.42-0.8 2.1-1.24 0.69-0.41 1.33-0.88 1.95-1.32 0.6-0.47 1.19-0.92 1.71-1.39 0.26-0.23 0.52-0.45 0.76-0.67 0.24-0.23 0.47-0.44 0.69-0.66 0.45-0.41 0.83-0.82 1.17-1.17 0.34-0.36 0.64-0.67 0.87-0.94 0.47-0.53 0.73-0.84 0.73-0.84l-0.06-0.07s-0.33 0.24-0.89 0.67c-0.57 0.43-1.36 1.05-2.31 1.79-0.48 0.37-0.99 0.77-1.54 1.19s-1.12 0.85-1.72 1.31c-0.6 0.44-1.21 0.92-1.86 1.37-0.63 0.47-1.31 0.89-1.98 1.32-0.69 0.4-1.38 0.81-2.08 1.16-0.35 0.19-0.7 0.36-1.05 0.51-0.35 0.16-0.69 0.33-1.04 0.47-0.7 0.28-1.37 0.55-2.02 0.77-0.65 0.24-1.27 0.42-1.85 0.58-0.58 0.18-1.12 0.29-1.59 0.4-0.47 0.12-0.9 0.2-1.24 0.26-0.69 0.13-1.09 0.2-1.09 0.2z"/>
		<path class="st1" d="m325.22 68.609s0.41-0.2 1.13-0.56 1.75-0.84 3-1.4 2.71-1.21 4.27-1.91c0.78-0.36 1.59-0.72 2.4-1.12 0.82-0.38 1.63-0.8 2.45-1.23 0.81-0.44 1.62-0.87 2.4-1.35 0.79-0.45 1.52-0.97 2.24-1.47 0.35-0.26 0.67-0.54 1-0.81l0.48-0.39c0.15-0.14 0.29-0.28 0.44-0.42 0.29-0.28 0.57-0.55 0.84-0.81 0.26-0.27 0.49-0.56 0.72-0.82 0.47-0.51 0.84-1.03 1.17-1.49 0.16-0.23 0.31-0.45 0.46-0.64 0.12-0.21 0.23-0.41 0.33-0.58 0.4-0.7 0.62-1.11 0.62-1.11l-0.08-0.05s-0.31 0.35-0.81 0.96c-0.13 0.15-0.27 0.32-0.42 0.51-0.16 0.17-0.34 0.36-0.53 0.57-0.19 0.2-0.38 0.42-0.59 0.65s-0.46 0.44-0.69 0.68c-0.25 0.23-0.49 0.48-0.76 0.73-0.28 0.24-0.56 0.48-0.85 0.73-0.29 0.26-0.6 0.51-0.92 0.75-0.32 0.25-0.64 0.51-0.98 0.76-0.68 0.5-1.38 1.02-2.12 1.51-0.73 0.51-1.52 0.96-2.29 1.44-0.79 0.45-1.58 0.89-2.38 1.31-0.79 0.43-1.58 0.82-2.34 1.21-1.53 0.76-2.96 1.48-4.18 2.11s-2.23 1.16-2.93 1.56c-0.7 0.39-1.1 0.61-1.1 0.61z"/>
		<path class="st1" d="m322.05 63.269s0.42-0.13 1.15-0.35c0.37-0.11 0.81-0.24 1.31-0.44s1.08-0.38 1.68-0.66c0.3-0.13 0.61-0.28 0.94-0.42 0.16-0.07 0.33-0.15 0.49-0.22 0.16-0.08 0.33-0.17 0.5-0.26 0.34-0.18 0.68-0.36 1.03-0.55s0.69-0.41 1.05-0.62c0.72-0.41 1.41-0.91 2.13-1.4 0.36-0.25 0.7-0.52 1.05-0.78s0.7-0.53 1.04-0.82c0.34-0.28 0.69-0.56 1.02-0.85s0.66-0.58 0.98-0.87c0.64-0.59 1.26-1.18 1.83-1.78 0.56-0.61 1.1-1.2 1.57-1.8 0.49-0.58 0.91-1.16 1.31-1.69 0.38-0.54 0.74-1.03 1.03-1.48s0.55-0.84 0.75-1.17c0.4-0.66 0.62-1.04 0.62-1.04l-0.08-0.05s-0.3 0.32-0.81 0.9c-0.26 0.29-0.57 0.63-0.92 1.03s-0.75 0.85-1.18 1.34c-0.44 0.48-0.9 1.02-1.41 1.57-0.26 0.27-0.51 0.56-0.77 0.85-0.27 0.28-0.54 0.58-0.82 0.87-0.27 0.31-0.56 0.6-0.85 0.9-0.3 0.3-0.57 0.62-0.88 0.92-0.3 0.3-0.61 0.6-0.92 0.91-0.31 0.3-0.64 0.58-0.96 0.88s-0.65 0.58-0.99 0.85-0.66 0.55-1 0.81c-0.69 0.51-1.35 1.02-2.04 1.46-0.34 0.22-0.67 0.46-1.01 0.65-0.34 0.2-0.67 0.39-0.99 0.58-0.16 0.1-0.32 0.19-0.48 0.28l-0.48 0.24c-0.31 0.16-0.61 0.32-0.91 0.47-0.58 0.3-1.14 0.51-1.62 0.74s-0.92 0.37-1.28 0.5c-0.72 0.26-1.13 0.41-1.13 0.41z"/>
		<path class="st1" d="m336.16 43.919s-0.22 0.28-0.61 0.76c-0.19 0.24-0.43 0.54-0.7 0.87-0.13 0.17-0.28 0.35-0.43 0.54-0.16 0.18-0.34 0.36-0.52 0.56-0.36 0.38-0.75 0.8-1.16 1.24-0.4 0.45-0.9 0.86-1.37 1.31-0.48 0.45-0.97 0.93-1.52 1.35-0.54 0.43-1.08 0.87-1.63 1.31-0.58 0.4-1.15 0.8-1.72 1.19-0.56 0.4-1.14 0.75-1.71 1.09-0.56 0.34-1.07 0.72-1.59 1.03-0.52 0.3-1.01 0.6-1.45 0.88-0.22 0.14-0.44 0.28-0.64 0.4-0.21 0.12-0.41 0.23-0.6 0.33-0.37 0.21-0.7 0.4-0.96 0.56-0.53 0.31-0.84 0.51-0.84 0.51l0.04 0.09s0.34-0.1 0.93-0.3c0.3-0.1 0.66-0.22 1.07-0.37 0.2-0.08 0.42-0.16 0.65-0.24 0.22-0.1 0.45-0.21 0.7-0.32 0.49-0.23 1.01-0.48 1.56-0.76 0.56-0.27 1.09-0.64 1.66-0.99 0.56-0.37 1.15-0.74 1.69-1.2 0.55-0.43 1.12-0.88 1.68-1.32 0.53-0.48 1.07-0.95 1.59-1.42 0.54-0.45 1-0.97 1.47-1.44 0.23-0.24 0.46-0.47 0.69-0.71 0.23-0.23 0.44-0.45 0.63-0.7 0.39-0.47 0.76-0.92 1.1-1.34 0.17-0.21 0.33-0.41 0.48-0.59 0.14-0.2 0.27-0.39 0.39-0.56 0.25-0.35 0.46-0.66 0.64-0.92 0.35-0.51 0.55-0.8 0.55-0.8z"/>
		<path class="st1" d="m333.28 33.569s-0.16 0.39-0.45 1.07c-0.13 0.35-0.33 0.75-0.55 1.21-0.11 0.23-0.23 0.48-0.36 0.73-0.14 0.25-0.28 0.52-0.44 0.79-0.29 0.56-0.66 1.14-1.04 1.75s-0.82 1.24-1.27 1.88c-0.47 0.63-0.95 1.29-1.48 1.92-0.51 0.65-1.09 1.26-1.64 1.89-0.59 0.6-1.16 1.21-1.77 1.76-0.59 0.57-1.21 1.1-1.79 1.62-1.18 1.03-2.3 1.98-3.29 2.75-0.25 0.2-0.48 0.38-0.71 0.56-0.23 0.17-0.45 0.33-0.65 0.49-0.41 0.31-0.76 0.58-1.07 0.8-0.6 0.43-0.94 0.69-0.94 0.69l0.05 0.08s0.39-0.17 1.06-0.49c0.34-0.15 0.74-0.37 1.2-0.62s0.96-0.54 1.5-0.9c0.27-0.18 0.56-0.35 0.84-0.55s0.57-0.41 0.87-0.63c0.3-0.21 0.59-0.45 0.89-0.7s0.61-0.49 0.91-0.75c0.58-0.55 1.2-1.1 1.76-1.73 0.59-0.6 1.15-1.25 1.71-1.88 0.54-0.66 1.1-1.31 1.59-1.99 0.51-0.66 0.97-1.35 1.42-2.01 0.23-0.33 0.42-0.67 0.62-0.99 0.2-0.33 0.4-0.64 0.57-0.97 0.35-0.64 0.69-1.24 0.95-1.83 0.14-0.29 0.27-0.56 0.39-0.82 0.11-0.27 0.22-0.52 0.32-0.76 0.2-0.48 0.37-0.89 0.49-1.24 0.24-0.7 0.38-1.1 0.38-1.1z"/>
		<path class="st1" d="m325.73 27.769s-0.75 1.29-1.87 3.23c-0.56 0.97-1.22 2.09-1.92 3.3-0.71 1.2-1.49 2.47-2.31 3.71-0.42 0.61-0.83 1.23-1.27 1.81-0.22 0.29-0.43 0.58-0.64 0.87-0.22 0.28-0.44 0.56-0.65 0.83-0.41 0.56-0.85 1.06-1.23 1.56-0.2 0.24-0.4 0.47-0.6 0.7-0.19 0.23-0.37 0.45-0.57 0.65-0.38 0.4-0.71 0.79-1.04 1.09-0.32 0.31-0.59 0.6-0.84 0.81-0.49 0.42-0.77 0.68-0.77 0.68l0.05 0.08s0.33-0.17 0.91-0.49c0.3-0.15 0.62-0.39 1-0.66 0.39-0.26 0.78-0.6 1.21-0.97 0.44-0.36 0.85-0.82 1.32-1.28 0.43-0.49 0.9-0.99 1.32-1.56 0.21-0.29 0.42-0.58 0.64-0.87 0.2-0.3 0.4-0.61 0.61-0.92 0.41-0.62 0.79-1.27 1.18-1.91 0.77-1.29 1.49-2.6 2.15-3.84s1.24-2.41 1.73-3.41c1-2 1.66-3.34 1.66-3.34z"/>
		<path class="st1" d="m319.18 20.519s-0.04 0.37-0.11 1.03c-0.03 0.33-0.09 0.72-0.16 1.17s-0.15 0.96-0.27 1.5c-0.1 0.55-0.24 1.14-0.41 1.76-0.15 0.62-0.36 1.26-0.56 1.93-0.23 0.66-0.45 1.34-0.74 2.01-0.26 0.68-0.59 1.35-0.9 2.02-0.35 0.65-0.68 1.31-1.08 1.93-0.37 0.63-0.78 1.21-1.15 1.79-0.41 0.56-0.76 1.12-1.15 1.63-0.19 0.26-0.37 0.5-0.55 0.74-0.19 0.23-0.37 0.46-0.54 0.68-0.34 0.44-0.67 0.83-0.97 1.17-0.29 0.35-0.55 0.65-0.77 0.89-0.44 0.48-0.68 0.78-0.69 0.78l0.06 0.07s0.31-0.21 0.85-0.6c0.13-0.1 0.28-0.21 0.44-0.33 0.15-0.13 0.32-0.27 0.49-0.42 0.35-0.3 0.75-0.64 1.14-1.06 0.2-0.2 0.41-0.42 0.63-0.64 0.2-0.23 0.41-0.48 0.62-0.72 0.44-0.49 0.82-1.06 1.25-1.64 0.37-0.61 0.78-1.23 1.11-1.9 0.36-0.66 0.67-1.35 0.99-2.04 0.29-0.7 0.59-1.4 0.82-2.11 0.26-0.7 0.45-1.41 0.66-2.09 0.09-0.34 0.17-0.68 0.25-1.01 0.09-0.33 0.16-0.65 0.21-0.98 0.12-0.64 0.23-1.24 0.3-1.8 0.09-0.56 0.14-1.08 0.18-1.53 0.05-0.46 0.08-0.86 0.09-1.18 0.03-0.66 0.05-1.03 0.05-1.03z"/>
		<path class="st1" d="m310.36 18.369s-0.27 1-0.67 2.49c-0.1 0.37-0.21 0.78-0.33 1.21-0.11 0.43-0.28 0.86-0.42 1.32-0.15 0.46-0.31 0.93-0.46 1.4-0.17 0.48-0.3 0.97-0.49 1.44-0.39 0.95-0.82 1.88-1.17 2.77-0.08 0.23-0.17 0.44-0.24 0.66-0.09 0.21-0.17 0.42-0.25 0.63-0.17 0.41-0.32 0.8-0.45 1.16-0.53 1.45-0.78 2.47-0.78 2.47l0.08 0.04s0.62-0.84 1.38-2.21c0.19-0.34 0.39-0.71 0.6-1.11 0.22-0.39 0.4-0.82 0.57-1.28 0.33-0.92 0.64-1.91 0.97-2.89 0.16-0.49 0.27-1.01 0.4-1.5 0.13-0.5 0.25-0.98 0.37-1.45 0.11-0.47 0.26-0.92 0.32-1.36 0.08-0.44 0.15-0.85 0.21-1.23 0.27-1.52 0.44-2.54 0.44-2.54z"/>
		<path class="st1" d="m301.17 14.119s0.05 0.16 0.14 0.45c0.04 0.14 0.11 0.32 0.14 0.52s0.1 0.42 0.12 0.67 0.07 0.52 0.06 0.81v0.44c0 0.15-0.02 0.3-0.03 0.46-0.01 0.31-0.07 0.63-0.12 0.95-0.07 0.32-0.12 0.65-0.21 0.97-0.08 0.32-0.18 0.65-0.28 0.96-0.11 0.31-0.22 0.62-0.31 0.92-0.18 0.61-0.32 1.19-0.41 1.71-0.09 0.51-0.13 0.96-0.13 1.27 0.01 0.32 0.03 0.49 0.03 0.49l0.09 0.01s0.09-0.16 0.21-0.43c0.14-0.27 0.31-0.66 0.52-1.12 0.21-0.47 0.44-1.02 0.63-1.65 0.09-0.31 0.16-0.64 0.22-0.98s0.12-0.68 0.17-1.03c0.06-0.35 0.08-0.7 0.12-1.04 0.01-0.35 0.04-0.69 0.02-1.02 0-0.33-0.03-0.65-0.08-0.95-0.03-0.3-0.12-0.58-0.17-0.83-0.05-0.26-0.16-0.48-0.22-0.69s-0.15-0.37-0.22-0.5c-0.13-0.27-0.21-0.42-0.21-0.42z"/>
	
	

</svg>
